<?xml version="1.0" encoding="UTF-8"?>
<svg viewBox="0 0 34 33" version="1.1" xmlns="http://www.w3.org/2000/svg" xmlns:xlink="http://www.w3.org/1999/xlink">
    <title>Path</title>
    <g id="SAM" stroke="none" stroke-width="1" fill="none" fill-rule="evenodd" opacity="0.2">
        <g id="SAM-Player" transform="translate(-1863, -48)" fill="#000000" fill-rule="nonzero" stroke="#F9FBFF">
            <path d="M1882.99421,64.5002372 L1895.45463,52.0394422 C1896.26553,51.2289191 1896.26553,49.9184154 1895.45463,49.1078923 C1894.6441,48.2973692 1893.3336,48.2973692 1892.52308,49.1078923 L1880.06228,61.5686875 L1867.60187,49.1078923 C1866.79096,48.2973692 1865.48084,48.2973692 1864.67032,49.1078923 C1863.85941,49.9184154 1863.85941,51.2289191 1864.67032,52.0394422 L1877.13073,64.5002372 L1864.67032,76.9610324 C1863.85941,77.7715555 1863.85941,79.0820592 1864.67032,79.8925823 C1865.07425,80.2968947 1865.60536,80.5 1866.13609,80.5 C1866.66682,80.5 1867.19755,80.2968947 1867.60187,79.8925823 L1880.06228,67.4317871 L1892.52308,79.8925823 C1892.92739,80.2968947 1893.45812,80.5 1893.98885,80.5 C1894.51958,80.5 1895.05031,80.2968947 1895.45463,79.8925823 C1896.26553,79.0820592 1896.26553,77.7715555 1895.45463,76.9610324 L1882.99421,64.5002372 Z" id="Path"></path>
        </g>
    </g>
</svg>