<?xml version="1.0" encoding="UTF-8"?>
<svg viewBox="0 0 48 43" version="1.1" xmlns="http://www.w3.org/2000/svg" xmlns:xlink="http://www.w3.org/1999/xlink">
    <title>Combined Shape</title>
    <g id="SAM" stroke="none" stroke-width="1" fill="none" fill-rule="evenodd" opacity="0.5">
        <g id="SAM-Player" transform="translate(-297, -44)" fill="#000000" fill-rule="nonzero">
            <path d="M304.979928,44.1516941 C305.359184,44.1516941 305.666654,44.4591644 305.666654,44.8384205 C305.666654,45.2176765 305.359184,45.5251468 304.979928,45.5251468 L301.768978,45.5251468 C301.711202,45.5251468 301.664138,45.5722105 301.664138,45.629987 L301.664138,48.271045 L339.507887,48.271045 L339.507887,45.629987 C339.507887,45.5722105 339.460824,45.5251468 339.403047,45.5251468 L308.175128,45.5251468 C307.795872,45.5251468 307.488402,45.2176765 307.488402,44.8384205 C307.488402,44.4591644 307.795872,44.1516941 308.175128,44.1516941 L339.403047,44.1516941 C340.218145,44.1516941 340.88134,44.8148887 340.88134,45.629987 L340.88134,48.7883788 L343.917769,54.8269009 C343.919509,54.8303803 343.920608,54.8341344 343.922347,54.8377054 C343.931778,54.8572084 343.940202,54.8771693 343.947802,54.8976795 C343.95,54.9036311 343.95238,54.9096743 343.954395,54.9157175 C343.962452,54.9396156 343.969503,54.9639715 343.974905,54.9889683 C343.981589,55.019459 343.985343,55.046104 343.987815,55.0732068 C343.988456,55.0806234 343.988456,55.0880401 343.988914,55.0954567 L343.990928,55.1353784 L343.990928,57.7793664 C343.990928,59.7132793 342.58726,61.3243393 340.74546,61.6503054 L340.74546,80.7036651 L341.857315,80.7036651 C343.053318,80.7036651 344.026272,81.6767106 344.026272,82.8727132 L344.026272,85.0447828 C344.026272,85.6551452 343.529723,86.1516941 342.919361,86.1516941 L298.252665,86.1516941 C297.642303,86.1516941 297.145754,85.6551452 297.145754,85.0447828 L297.145754,82.8727132 C297.145754,81.6767106 298.118707,80.7036651 299.31471,80.7036651 L300.426657,80.7036651 L300.426657,61.6503054 C298.584857,61.3243393 297.181189,59.7131878 297.181189,57.7793664 L297.181189,55.1353784 L297.183203,55.0954567 C297.183661,55.0880401 297.183661,55.0806234 297.184302,55.0732068 C297.186683,55.046104 297.190528,55.0195505 297.196022,54.9934549 C297.202615,54.9639715 297.209665,54.9396156 297.217723,54.9157175 C297.219737,54.9096743 297.222118,54.9037227 297.224315,54.8976795 C297.231915,54.8771693 297.240339,54.8572084 297.24977,54.8377054 C297.251418,54.834226 297.252608,54.8304719 297.254348,54.8269009 L300.290686,48.7883788 L300.290686,45.629987 C300.290686,44.8148887 300.95388,44.1516941 301.768978,44.1516941 L304.979928,44.1516941 Z M341.857224,82.0771178 L299.31471,82.0771178 C298.876029,82.0771178 298.519206,82.4339408 298.519206,82.8726216 L298.519206,84.7782415 L342.652728,84.7782415 L342.652728,82.8726216 C342.652728,82.4339408 342.295905,82.0771178 341.857224,82.0771178 Z M336.813265,59.9963937 C336.104197,61.031153 334.914146,61.7115614 333.567796,61.7115614 C332.221446,61.7115614 331.031395,61.031153 330.322327,59.9963937 C329.613351,61.031153 328.4233,61.7115614 327.07695,61.7115614 C325.7306,61.7115614 324.540549,61.031153 323.831481,59.9963937 C323.122414,61.031153 321.932363,61.7115614 320.586013,61.7115614 C319.239663,61.7115614 318.049612,61.031153 317.340636,59.9963937 C316.631568,61.031153 315.441425,61.7115614 314.095167,61.7115614 C312.748909,61.7115614 311.558858,61.031153 310.84979,59.9963937 C310.140722,61.031153 308.950671,61.7115614 307.604321,61.7115614 C306.257971,61.7115614 305.06792,61.031153 304.358852,59.9963937 C303.773212,60.8510475 302.859134,61.4628749 301.80011,61.6503054 L301.80011,80.7036651 L303.026603,80.7036651 L303.026603,65.4433239 C303.026603,64.7390174 303.599608,64.1660129 304.303914,64.1660129 L312.243295,64.1660129 C312.947601,64.1660129 313.520606,64.7390174 313.520606,65.4433239 L313.520606,80.7036651 L339.372007,80.7036651 L339.372007,61.6503054 C338.312983,61.4628749 337.398905,60.8510475 336.813265,59.9963937 Z M312.147153,65.5394656 L304.400056,65.5394656 L304.400056,80.7036651 L312.147153,80.7036651 L312.147153,65.5394656 Z M324.591916,64.1660129 C324.971173,64.1660129 325.278643,64.4734832 325.278643,64.8527393 C325.278643,65.2319953 324.971173,65.5394656 324.591916,65.5394656 L316.328309,65.5394656 L316.328309,76.3471648 L336.126538,76.3471648 L336.126538,65.5394656 L327.825024,65.5394656 C327.445768,65.5394656 327.138298,65.2319953 327.138298,64.8527393 C327.138298,64.4734832 327.445768,64.1660129 327.825024,64.1660129 L336.222588,64.1660129 C336.926895,64.1660129 337.499899,64.7390174 337.499899,65.4433239 L337.499899,76.443398 C337.499899,77.1477046 336.926895,77.720709 336.222588,77.720709 L316.232168,77.720709 C315.527861,77.720709 314.954857,77.1477046 314.954857,76.443398 L314.954857,65.4433239 C314.954857,64.7389258 315.527861,64.1660129 316.232168,64.1660129 Z M310.285118,71.5844887 C310.664374,71.5844887 310.971844,71.891959 310.971844,72.271215 L310.971844,73.5073225 C310.971844,73.8865785 310.664374,74.1940488 310.285118,74.1940488 C309.905862,74.1940488 309.598391,73.8865785 309.598391,73.5073225 L309.598391,72.271215 C309.598391,71.891959 309.905862,71.5844887 310.285118,71.5844887 Z M342.617384,55.8221963 L337.499899,55.8221963 L337.499899,57.7794579 C337.499899,59.1903601 338.64774,60.3382003 340.058642,60.3382003 C341.469544,60.3382003 342.617384,59.1903601 342.617384,57.7794579 L342.617384,55.8221963 Z M336.126538,55.8221047 L331.009054,55.8221047 L331.009054,57.7793664 C331.009054,59.1902685 332.156894,60.3381087 333.567796,60.3381087 C334.978698,60.3381087 336.126538,59.1902685 336.126538,57.7793664 L336.126538,55.8221047 Z M329.635601,55.8221047 L324.518208,55.8221047 L324.518208,57.7793664 C324.518208,59.1902685 325.66614,60.3381087 327.07695,60.3381087 C328.487761,60.3381087 329.635601,59.1902685 329.635601,57.7793664 L329.635601,55.8221047 Z M323.144755,55.8221047 L318.02727,55.8221047 L318.02727,57.7793664 C318.02727,59.1902685 319.175111,60.3381087 320.586013,60.3381087 C321.996915,60.3381087 323.144755,59.1902685 323.144755,57.7793664 L323.144755,55.8221047 Z M310.162972,55.8221963 L305.045487,55.8221963 L305.045487,57.7794579 C305.045487,59.1902685 306.193327,60.3382003 307.60423,60.3382003 C309.015132,60.3382003 310.162972,59.1903601 310.162972,57.7794579 L310.162972,55.8221963 Z M316.653818,55.8221047 L311.536425,55.8221047 L311.536425,57.7793664 C311.536425,59.1902685 312.684173,60.3381087 314.095075,60.3381087 C315.505978,60.3381087 316.653818,59.1902685 316.653818,57.7793664 L316.653818,55.8221047 Z M303.672126,55.8221963 L298.554641,55.8221963 L298.554641,57.7794579 C298.554641,59.1902685 299.702482,60.3382003 301.113384,60.3382003 C302.524286,60.3382003 303.672126,59.1903601 303.672126,57.7794579 L303.672126,55.8221963 Z M339.77452,49.6444977 L335.570839,49.6444977 L337.296262,54.448652 L342.190149,54.448652 L339.77452,49.6444977 Z M334.111409,49.6444977 L329.841527,49.6444977 L330.876836,54.448652 L335.836831,54.448652 L334.111409,49.6444977 Z M328.436577,49.6444977 L324.125583,49.6444977 L324.470686,54.448652 L329.471885,54.448652 L328.436577,49.6444977 Z M322.748468,49.6444977 L318.423466,49.6444977 L318.078363,54.448652 L323.093571,54.448652 L322.748468,49.6444977 Z M317.046442,49.6444977 L312.735449,49.6444977 L311.70014,54.448652 L316.701339,54.448652 L317.046442,49.6444977 Z M311.330407,49.6444977 L307.060525,49.6444977 L305.335103,54.448652 L310.295098,54.448652 L311.330407,49.6444977 Z M305.601186,49.6444977 L301.397505,49.6444977 L298.981877,54.448652 L303.875763,54.448652 L305.601186,49.6444977 Z" id="Combined-Shape"></path>
        </g>
    </g>
</svg>