<?xml version="1.0" encoding="UTF-8"?>
<svg viewBox="0 0 31 30" version="1.1" xmlns="http://www.w3.org/2000/svg" xmlns:xlink="http://www.w3.org/1999/xlink">
    <title>download-solid</title>
    <g id="SAM" stroke="none" stroke-width="1" fill="none" fill-rule="evenodd">
        <path d="M15.5,0.530940373 C23.6045748,0.530940373 30.175,7.10106891 30.175,15.2059404 C30.175,23.3108118 23.6045748,29.8809404 15.5,29.8809404 C7.39576705,29.8809404 0.825,23.3101733 0.825,15.2059404 C0.825,7.10136554 7.39512854,0.530940373 15.5,0.530940373 Z M15.5,8.03094037 C15.1619925,8.03094037 14.8875,8.30543292 14.8875,8.64344037 L14.8875,19.3525563 L14.3326626,18.7975851 L10.4695514,14.9335422 C10.2297393,14.6943394 9.84162453,14.6945276 9.6010222,14.9344881 C9.36172983,15.1731725 9.36172983,15.5605508 9.60132931,15.8001503 L14.9047607,21.1035816 C15.0407056,21.2389628 15.2356125,21.2928463 15.4422407,21.2561837 L15.5556134,21.2561509 C15.7638182,21.2929691 15.9573167,21.2395925 16.0933276,21.1035816 L21.3967589,15.8001503 C21.6363558,15.5611938 21.6363558,15.1737784 21.3967589,14.9341814 C21.1577678,14.694582 20.7703406,14.694582 20.5307411,14.9341814 L16.1125,19.3524225 L16.1125,8.64344037 C16.1125,8.30543292 15.8380075,8.03094037 15.5,8.03094037 Z" id="download-solid" fill="#000000" fill-rule="nonzero"></path>
    </g>
</svg>