<?xml version="1.0" encoding="UTF-8"?>
<svg viewBox="0 0 26 23" version="1.1" xmlns="http://www.w3.org/2000/svg" xmlns:xlink="http://www.w3.org/1999/xlink">
    <title>Combined Shape</title>
    <g id="SAM" stroke="none" stroke-width="1" fill="none" fill-rule="evenodd">
        <g id="sam.argonprotocol.org" transform="translate(-1840, -29)" fill="#000000" fill-rule="nonzero">
            <path d="M1865.13759,44.3171247 C1865.44642,44.3171247 1865.69678,44.5674856 1865.69678,44.8763214 L1865.69678,49.2526427 C1865.69678,50.7699662 1864.46675,52 1862.94943,52 L1843.25598,52 C1841.73866,52 1840.50862,50.7699662 1840.50862,49.2526427 L1840.50862,44.8763214 C1840.50862,44.5674856 1840.75898,44.3171247 1841.06782,44.3171247 C1841.37665,44.3171247 1841.62702,44.5674856 1841.62702,44.8763214 L1841.62702,49.2526427 C1841.62702,50.1522947 1842.35633,50.8816068 1843.25598,50.8816068 L1862.94943,50.8816068 C1863.84908,50.8816068 1864.57839,50.1522947 1864.57839,49.2526427 L1864.57839,44.8763214 C1864.57839,44.5674856 1864.82875,44.3171247 1865.13759,44.3171247 Z M1853.1027,29 C1853.41154,29 1853.6619,29.2503609 1853.6619,29.5591966 L1853.6619,45.900659 L1854.53062,45.2067101 L1858.19087,42.2802287 C1858.43275,42.119447 1858.75746,42.1706054 1858.93818,42.3979704 C1859.11891,42.6253354 1859.09549,42.9532086 1858.9173,43.1238693 L1853.4494,47.498194 C1853.24617,47.6587939 1852.95924,47.6587939 1852.75851,47.5001907 L1847.28811,43.1238693 L1847.25007,43.0960926 C1847.07423,42.9792105 1846.97922,42.7732541 1847.00443,42.5636241 C1847.02964,42.3539941 1847.17078,42.1764377 1847.36931,42.1045792 C1847.56785,42.0327207 1847.78993,42.0788138 1847.97679,42.2526932 L1851.67479,45.2067101 L1852.54351,45.900659 L1852.54351,29.5591966 C1852.54351,29.2503609 1852.79387,29 1853.1027,29 Z" id="Combined-Shape"></path>
        </g>
    </g>
</svg>