<?xml version="1.0" encoding="UTF-8"?>
<svg viewBox="0 0 31 30" version="1.1" xmlns="http://www.w3.org/2000/svg" xmlns:xlink="http://www.w3.org/1999/xlink">
    <title>Combined Shape</title>
    <g id="SAM" stroke="none" stroke-width="1" fill="none" fill-rule="evenodd">
        <path d="M15.5,0.530940373 C23.6045748,0.530940373 30.175,7.10106891 30.175,15.2059404 C30.175,23.3108118 23.6045748,29.8809404 15.5,29.8809404 C7.39576705,29.8809404 0.825,23.3101733 0.825,15.2059404 C0.825,7.10136554 7.39512854,0.530940373 15.5,0.530940373 Z M17.2285156,12.075081 L12.6191406,12.075081 C12.3008957,12.075081 12.0429688,12.3330079 12.0429688,12.6512529 L12.0429688,14.9559404 C12.0429688,15.2741853 12.3008957,15.5321122 12.6191406,15.5321122 L13.1953125,15.5321122 L13.1953125,20.1414872 L12.6191406,20.1414872 C12.3008957,20.1414872 12.0429688,20.3994142 12.0429688,20.7176591 L12.0429688,23.0223466 C12.0429688,23.3405916 12.3008957,23.5985185 12.6191406,23.5985185 L18.3808594,23.5985185 C18.6991043,23.5985185 18.9570312,23.3405916 18.9570312,23.0223466 L18.9570312,20.7176591 C18.9570312,20.3994142 18.6991043,20.1414872 18.3808594,20.1414872 L17.8046875,20.1414872 L17.8046875,12.6512529 C17.8046875,12.3330079 17.5467606,12.075081 17.2285156,12.075081 Z M16.6523438,13.2274247 L16.6523438,20.7176591 C16.6523438,21.0359041 16.9104958,21.293831 17.2285156,21.293831 L17.8046875,21.293831 L17.8046875,22.4461747 L13.1953125,22.4461747 L13.1953125,21.293831 L13.7714844,21.293831 C14.0897293,21.293831 14.3476562,21.0359041 14.3476562,20.7176591 L14.3476562,14.9559404 C14.3476562,14.6376954 14.0897293,14.3797685 13.7714844,14.3797685 L13.1953125,14.3797685 L13.1953125,13.2274247 L16.6523438,13.2274247 Z M15.5,6.31336225 C14.2292709,6.31336225 13.1953125,7.34732065 13.1953125,8.61804975 C13.1953125,9.88877884 14.2292709,10.9227372 15.5,10.9227372 C16.7707291,10.9227372 17.8046875,9.88877884 17.8046875,8.61804975 C17.8046875,7.34732065 16.7707291,6.31336225 15.5,6.31336225 Z M15.5,7.465706 C16.1353645,7.465706 16.6523438,7.9826852 16.6523438,8.61804975 C16.6523438,9.25341429 16.1353645,9.7703935 15.5,9.7703935 C14.8646355,9.7703935 14.3476563,9.25341429 14.3476563,8.61804975 C14.3476563,7.9826852 14.8646355,7.465706 15.5,7.465706 Z" id="Combined-Shape" fill="#000000" fill-rule="nonzero"></path>
    </g>
</svg>