<?xml version="1.0" encoding="UTF-8"?>
<svg viewBox="0 0 25 35" version="1.1" xmlns="http://www.w3.org/2000/svg" xmlns:xlink="http://www.w3.org/1999/xlink">
    <title>Combined Shape</title>
    <g id="SAM" stroke="none" stroke-width="1" fill="none" fill-rule="evenodd">
        <g id="SAM-Player" transform="translate(-20, -1061)" fill="#000000" fill-rule="nonzero">
            <path d="M36.6798807,1061.37803 L44.0621437,1061.37803 C44.5215044,1061.37803 44.893948,1061.75047 44.893948,1062.20983 L44.893948,1094.54622 C44.893948,1095.00559 44.5215044,1095.37803 44.0621437,1095.37803 L36.6798807,1095.37803 C36.22052,1095.37803 35.8480764,1095.00559 35.8480764,1094.54622 L35.8480764,1062.20983 C35.8480764,1061.75047 36.22052,1061.37803 36.6798807,1061.37803 Z M21.0835504,1061.37803 L28.4658134,1061.37803 C28.9251741,1061.37803 29.2976177,1061.75047 29.2976177,1062.20983 L29.2976177,1094.54622 C29.2976177,1095.00559 28.9251741,1095.37803 28.4658134,1095.37803 L21.0835504,1095.37803 C20.6241897,1095.37803 20.2517462,1095.00559 20.2517462,1094.54622 L20.2517462,1062.20983 C20.2517462,1061.75047 20.6241897,1061.37803 21.0835504,1061.37803 Z" id="Combined-Shape"></path>
        </g>
    </g>
</svg>