<?xml version="1.0" encoding="UTF-8"?>
<svg viewBox="0 0 30 30" version="1.1" xmlns="http://www.w3.org/2000/svg" xmlns:xlink="http://www.w3.org/1999/xlink">
    <title>play-solid</title>
    <g id="SAM" stroke="none" stroke-width="1" fill="none" fill-rule="evenodd">
        <path d="M15.325,0.530940373 C23.4295748,0.530940373 30,7.10106891 30,15.2059404 C30,23.3108118 23.4295748,29.8809404 15.325,29.8809404 C7.22076705,29.8809404 0.65,23.3101733 0.65,15.2059404 C0.65,7.10136554 7.22012854,0.530940373 15.325,0.530940373 Z M11.6040208,7.49966188 C11.3874565,7.37469987 11.1204668,7.37469987 10.9039024,7.49966197 C10.6874792,7.62454246 10.5541434,7.8554669 10.5541434,8.10562197 L10.5541434,22.3061221 C10.5541434,22.555768 10.6875119,22.7866736 10.9044762,22.9118668 C11.0116793,22.9738605 11.1320312,23.0059404 11.2539616,23.0059404 C11.3758922,23.0059404 11.4962439,22.9738605 11.6038947,22.9116082 L23.9021897,15.8118322 C24.118613,15.6869516 24.2519489,15.4560271 24.2519489,15.205872 C24.2519489,14.9557169 24.118613,14.7247925 23.9020435,14.5998275 Z M11.9537799,9.31772502 L13.0037757,9.92393084 L21.1024899,14.5996518 L22.1525106,15.205872 L21.1024899,15.8120921 L13.0037758,20.4878132 L11.9537799,21.0940191 L11.9537799,9.31772502 Z" id="play-solid" fill="#000000" fill-rule="nonzero"></path>
    </g>
</svg>