<?xml version="1.0" encoding="UTF-8"?>
<svg viewBox="0 0 43 43" version="1.1" xmlns="http://www.w3.org/2000/svg" xmlns:xlink="http://www.w3.org/1999/xlink">
    <title>money-bag(3)</title>
    <g id="SAM" stroke="none" stroke-width="1" fill="none" fill-rule="evenodd" opacity="0.5">
        <g id="SAM-Player" transform="translate(-1477, -41)" fill="#000000" fill-rule="nonzero">
            <g id="money-bag(3)" transform="translate(1477.315, 41.6517)">
                <path d="M37.894029,32.6572161 C38.7236511,31.516465 39.1732797,30.1435793 39.179213,28.7330649 C39.1881529,28.547594 39.1230338,28.3661706 38.9981866,28.2287205 C38.8733393,28.0912703 38.6989949,28.0090573 38.5135213,28.000174 C38.1288288,27.9858035 37.8032084,28.2815676 37.7806304,28.6658657 C37.785898,29.7837576 37.4415396,30.875327 36.7957426,31.7878269 C35.4300596,33.5126055 32.8386918,33.6001044 32.3325981,33.6001044 C31.9460036,33.6001044 31.6326068,33.9135012 31.6326068,34.3000957 C31.6326068,34.6866902 31.9460036,35.000087 32.3325981,35.000087 C32.9513904,35.000087 36.1272509,34.8873884 37.894029,32.6572161 L37.894029,32.6572161 Z" id="Shape"></path>
                <path d="M23.7997042,23.8002262 C23.7997042,23.4136317 23.4863074,23.1002349 23.0997129,23.1002349 C22.7131184,23.1002349 22.3997216,23.4136317 22.3997216,23.8002262 C22.3997216,25.3466043 23.6533087,26.6001914 25.1996868,26.6001914 L25.1996868,27.3001827 C25.1996868,27.6867772 25.5130836,28.000174 25.8996781,28.000174 C26.2862726,28.000174 26.5996694,27.6867772 26.5996694,27.3001827 L26.5996694,26.6001914 C28.1460474,26.6001914 29.3996346,25.3466043 29.3996346,23.8002262 C29.3996346,22.2538481 28.1460474,21.000261 26.5996694,21.000261 L26.5996694,18.2002958 C27.3728584,18.2002958 27.999652,18.8270894 27.999652,19.6002784 C27.999652,19.9868729 28.3130488,20.3002697 28.6996433,20.3002697 C29.0862378,20.3002697 29.3996346,19.9868729 29.3996346,19.6002784 C29.3996346,18.0539003 28.1460474,16.8003132 26.5996694,16.8003132 L26.5996694,16.1003219 C26.5996694,15.7137274 26.2862726,15.4003306 25.8996781,15.4003306 C25.5130836,15.4003306 25.1996868,15.7137274 25.1996868,16.1003219 L25.1996868,16.8003132 C23.6533087,16.8003132 22.3997216,18.0539003 22.3997216,19.6002784 C22.3997216,21.1466565 23.6533087,22.4002436 25.1996868,22.4002436 L25.1996868,25.2002088 C24.4264977,25.2002088 23.7997042,24.5734153 23.7997042,23.8002262 Z M23.7997042,19.6002784 C23.7997042,18.8270894 24.4264977,18.2002958 25.1996868,18.2002958 L25.1996868,21.000261 C24.4264977,21.000261 23.7997042,20.3734675 23.7997042,19.6002784 Z M26.5996694,22.4002436 C27.3728584,22.4002436 27.999652,23.0270372 27.999652,23.8002262 C27.999652,24.5734153 27.3728584,25.2002088 26.5996694,25.2002088 L26.5996694,22.4002436 Z" id="Shape"></path>
                <path d="M41.4142852,23.6399282 C39.6895067,16.3103193 35.8549543,12.0634721 33.0857887,9.84519968 C36.5584456,10.1069964 37.6763317,11.5517785 37.7092313,11.5951779 C37.9285331,11.9082376 38.3584173,11.9874968 38.6749441,11.7732296 C38.9914709,11.5589623 39.0775948,11.1304006 38.8684169,10.8104877 C38.8180175,10.7348886 37.8457296,9.34610589 35.0184647,8.71051379 C35.7413999,8.11621221 36.1690693,7.23607731 36.1895502,6.30044374 C36.0959509,4.74922385 35.016066,3.43382015 33.5127834,3.03988427 C33.574418,2.53424961 33.6057402,2.0253798 33.6065823,1.51600321 C33.6058303,1.04672891 33.3700107,0.609043974 32.9785139,0.350298532 C32.5870171,0.0915530835 32.0919221,0.0461667537 31.6599065,0.229419205 C31.3065111,0.389420052 30.9782768,0.599989923 30.6855186,0.854511435 C30.3419944,1.20753153 29.8690932,1.40478439 29.3765349,1.40050465 C28.8847516,1.40396592 28.4128096,1.20679677 28.0696511,0.854511435 C26.8360245,-0.284837145 24.933932,-0.284837145 23.7003054,0.854511435 C23.3567267,1.20830022 22.8830608,1.40566102 22.3899217,1.40050465 C21.8982204,1.40459084 21.4262598,1.20730823 21.0837379,0.854511435 C20.7917403,0.600536301 20.4644763,0.390219701 20.11215,0.230119196 C19.6804269,0.0480950127 19.1862686,0.0941011568 18.7955668,0.352693091 C18.4048651,0.611285024 18.1694209,1.04817751 18.1682742,1.5167032 C18.1682742,3.25828156 18.5126699,6.36484294 20.6931428,8.45081701 C19.547208,9.1476216 18.4769787,9.96190608 17.4997825,10.8804868 L17.4997825,5.60045244 C17.4997825,4.00447228 15.2423105,2.80048725 12.2498477,2.80048725 C9.25738493,2.80048725 6.99991299,4.00447228 6.99991299,5.60045244 L6.99991299,12.6528648 C4.54504351,12.8978617 2.7999652,14.000348 2.7999652,15.4003306 L2.7999652,33.2046093 C1.10878622,33.6589037 0,34.5800922 0,35.7000783 L0,39.2000348 C0,40.796015 2.25747194,42 5.24993474,42 C7.92600148,42 10.0098756,41.036112 10.4207705,39.6900287 C11.6290667,40.3297902 12.9832971,40.643437 14.3498216,40.6000174 C17.3422844,40.6000174 19.5997564,39.3960324 19.5997564,37.8000522 L19.5997564,28.7001653 C19.5997564,27.1041852 17.3422844,25.9002001 14.3498216,25.9002001 C13.9991642,25.8999656 13.6487198,25.9174878 13.2998347,25.9526995 L13.2998347,15.4003306 C13.2998347,13.8673497 11.2159606,12.6997642 8.39989559,12.6094653 L8.39989559,7.53872835 C9.59074172,8.14400299 10.9146022,8.44030699 12.2498477,8.40041764 C13.5850933,8.44030699 14.9089538,8.14400299 16.0997999,7.53872835 L16.0997999,12.312669 C15.6385056,12.8285626 15.1751114,13.3906556 14.7180171,14.0136479 C14.508702,14.3253421 14.5825736,14.7466655 14.8854436,14.9685572 C15.1883134,15.1904488 15.6123063,15.133876 15.846403,14.8403376 C16.2959843,14.2316934 16.7778,13.6475328 17.2897851,13.0903593 C17.295385,13.0840594 17.300285,13.0777595 17.3058849,13.0721596 C18.642127,11.587118 20.2112747,10.3295774 21.9517271,9.34890585 C22.2948677,9.5144253 22.6578758,9.6351143 23.0318137,9.70800139 L21.2272361,11.3921805 C20.9446356,11.6562245 20.9295925,12.0993675 21.1936366,12.3819681 C21.4576806,12.6645687 21.9008236,12.6796118 22.1834243,12.4155677 L24.9833895,9.80390019 L25.2066867,9.80390019 L25.2066867,11.9038741 C25.2066867,12.2904686 25.5200835,12.6038654 25.906678,12.6038654 C26.2932725,12.6038654 26.6066693,12.2904686 26.6066693,11.9038741 L26.6066693,9.80040024 L26.8299665,9.80040024 L29.6299317,12.4120678 C29.8127422,12.5828743 30.0727904,12.6431778 30.3121184,12.5702626 C30.5514465,12.4973473 30.7336949,12.3022907 30.7902125,12.0585689 C30.84673,11.8148471 30.7689303,11.5594871 30.5861198,11.3886805 L28.7696424,9.69750152 C29.1413397,9.62393572 29.502006,9.50277255 29.8427291,9.337006 C31.6928061,10.3379936 37.7743305,14.2929444 40.0521022,23.9605242 C41.0425898,28.1688719 40.6855943,31.3881319 38.9916153,33.5266053 C36.8244423,36.2600713 33.064089,36.4000696 32.3325981,36.4000696 L22.3997216,36.4000696 C22.0131271,36.4000696 21.6997303,36.7134664 21.6997303,37.1000609 C21.6997303,37.4866554 22.0131271,37.8000522 22.3997216,37.8000522 L32.3325981,37.8000522 C33.5225833,37.8000522 37.5860328,37.5543553 40.0885017,34.3959945 C42.0610772,31.9047255 42.5076716,28.2857705 41.4142852,23.6399282 L41.4142852,23.6399282 Z M5.24993474,34.3000957 C7.56480597,34.3000957 9.09988689,35.1400853 9.09988689,35.7000783 C9.09988689,36.2600713 7.56480597,37.1000609 5.24993474,37.1000609 C2.93506352,37.1000609 1.3999826,36.2600713 1.3999826,35.7000783 C1.3999826,35.1400853 2.93506352,34.3000957 5.24993474,34.3000957 Z M5.24993474,40.6000174 C2.93506352,40.6000174 1.3999826,39.7600278 1.3999826,39.2000348 L1.3999826,37.6383542 C2.59082876,38.2436289 3.91468916,38.5399329 5.24993474,38.5000435 C6.58518033,38.5399329 7.90904076,38.2436289 9.09988689,37.6383542 L9.09988689,39.2000348 C9.09988689,39.7600278 7.56480597,40.6000174 5.24993474,40.6000174 Z M14.3498216,39.2000348 C12.0349504,39.2000348 10.4998695,38.3600452 10.4998695,37.8000522 L10.4998695,30.6384412 C11.6907156,31.2437159 13.014576,31.5400199 14.3498216,31.5001305 C15.6850672,31.5400199 17.0089277,31.2437159 18.1997738,30.6384412 L18.1997738,37.8000522 C18.1997738,38.3600452 16.6646929,39.2000348 14.3498216,39.2000348 Z M18.1997738,28.7001653 C18.1997738,29.2601584 16.6646929,30.1001479 14.3498216,30.1001479 C12.0349504,30.1001479 10.4998695,29.2601584 10.4998695,28.7001653 C10.4998695,28.1401723 12.0349504,27.3001827 14.3498216,27.3001827 C16.6646929,27.3001827 18.1997738,28.1401723 18.1997738,28.7001653 Z M9.09988689,28.7001653 L9.09988689,33.7618024 C7.90904076,33.1565278 6.58518033,32.8602238 5.24993474,32.9001131 C4.89927731,32.8998785 4.54883292,32.9174008 4.19994779,32.9526125 L4.19994779,17.3386065 C5.39079396,17.9438812 6.71465436,18.2401852 8.04989994,18.2002958 C9.38514552,18.2401852 10.709006,17.9438812 11.8998521,17.3386065 L11.8998521,26.2046963 C10.2086731,26.6589907 9.09988689,27.5801792 9.09988689,28.7001653 Z M11.8998521,15.4003306 C11.8998521,15.9603237 10.3647712,16.8003132 8.04989994,16.8003132 C5.73502871,16.8003132 4.19994779,15.9603237 4.19994779,15.4003306 C4.19994779,14.8403376 5.73502871,14.000348 8.04989994,14.000348 C10.3647712,14.000348 11.8998521,14.8403376 11.8998521,15.4003306 Z M12.2498477,7.00043504 C9.93497651,7.00043504 8.39989559,6.16044548 8.39989559,5.60045244 C8.39989559,5.0404594 9.93497651,4.20046985 12.2498477,4.20046985 C14.564719,4.20046985 16.0997999,5.0404594 16.0997999,5.60045244 C16.0997999,6.16044548 14.564719,7.00043504 12.2498477,7.00043504 Z M34.7895676,6.30044374 C34.7895676,7.44772948 33.547083,8.38921778 31.9896024,8.40041764 C31.7290894,8.39876951 31.4695179,8.36896339 31.215412,8.31151875 C32.2313669,7.22761953 32.9375279,5.89072471 33.2600866,4.44056686 C34.1026701,4.68883123 34.7087015,5.42577645 34.7895676,6.30044374 Z M20.2073488,1.94649786 C20.7984971,2.5004263 21.5798223,2.80614044 22.3899217,2.80048725 C23.2005171,2.80657212 23.9824337,2.50082268 24.5738945,1.94649786 C24.9199009,1.59716017 25.3911901,1.40062181 25.8828783,1.40062181 C26.3745664,1.40062181 26.8458557,1.59716017 27.191862,1.94649786 C27.7833423,2.50123783 28.565645,2.80704024 29.3765349,2.80048725 C30.1873716,2.80675216 30.9695711,2.5009901 31.5612077,1.94649786 C31.7551935,1.7750538 31.9710348,1.6300612 32.2030997,1.51530322 C32.2030997,2.81518706 31.9616027,6.02884712 29.7062308,7.79072522 C29.1988332,8.17179796 28.58374,8.38230201 27.9492526,8.39201774 C28.5552238,7.35120978 29.0348414,6.24181505 29.3779348,5.08735882 C29.444957,4.846279 29.3782736,4.58775614 29.2030034,4.40917331 C29.0277332,4.23059048 28.7705041,4.15907865 28.5282118,4.22157564 C28.2859194,4.28407263 28.0953738,4.47108366 28.0283516,4.71216348 C27.6406635,6.02798123 27.0446498,7.27318182 26.2629736,8.40041764 L25.5433825,8.40041764 C24.763253,7.27218629 24.1671442,6.02728061 23.7773045,4.71216348 C23.6735038,4.33967967 23.287399,4.12186892 22.9149152,4.22566955 C22.5424314,4.32947017 22.3246206,4.715575 22.4284212,5.08805881 C22.7718446,6.24350935 23.2519333,7.35384679 23.8585034,8.3955177 C23.2113114,8.39219582 22.5824261,8.18035823 22.0651257,7.79142521 C19.8097538,6.0302471 19.5682568,2.81658705 19.5682568,1.52090315 C19.8002229,1.6320409 20.0153691,1.77531464 20.2073488,1.94649786 Z" id="Shape"></path>
                <path d="M37.894029,32.6572161 C38.7236511,31.516465 39.1732797,30.1435793 39.179213,28.7330649 C39.1881529,28.547594 39.1230338,28.3661706 38.9981866,28.2287205 C38.8733393,28.0912703 38.6989949,28.0090573 38.5135213,28.000174 C38.1291043,27.9865571 37.8039321,28.2819141 37.7806304,28.6658657 C37.785898,29.7837576 37.4415396,30.875327 36.7957426,31.7878269 C35.4300596,33.5126055 32.8386918,33.6001044 32.3325981,33.6001044 C31.9460036,33.6001044 31.6326068,33.9135012 31.6326068,34.3000957 C31.6326068,34.6866902 31.9460036,35.000087 32.3325981,35.000087 C32.9513904,35.000087 36.1272509,34.8873884 37.894029,32.6572161 L37.894029,32.6572161 Z" id="Shape"></path>
            </g>
        </g>
    </g>
</svg>