<?xml version="1.0" encoding="UTF-8"?>
<svg viewBox="0 0 34 34" version="1.1" xmlns="http://www.w3.org/2000/svg" xmlns:xlink="http://www.w3.org/1999/xlink">
    <title>rocket</title>
    <g id="SAM" stroke="none" stroke-width="1" fill="none" fill-rule="evenodd">
        <g id="sam.argonprotocol.org-copy" transform="translate(-1188, -947)" fill="#000000" fill-rule="nonzero">
            <g id="Group-10" transform="translate(1186.2728, 941.9586)">
                <path d="M29.6889788,10.7569141 C30.0967921,10.8266909 30.4159531,11.1458519 30.4857346,11.5536926 C30.7134618,12.8851089 30.7770514,14.5092286 30.5125741,16.250619 C30.1208951,18.8295401 29.0643146,21.16014 27.1760605,23.0483941 L26.0291818,24.1943714 L26.0355388,24.3547719 C26.0656859,25.8751938 25.8521469,27.4657883 25.2685888,29.1293732 C24.678075,30.8128667 23.8236465,32.2260854 22.810737,33.424853 C22.4420194,33.8612943 21.7789249,33.8880217 21.3751479,33.4842447 L19.0571818,31.1663714 L18.711648,31.5128066 C18.3303541,31.8941005 17.7121182,31.8941005 17.3308232,31.5128055 L16.2449855,30.4274966 C16.1414777,31.3005054 15.8033869,32.1397862 15.2489646,32.8501396 C14.8890785,33.3120097 14.2052384,33.3497927 13.7912479,32.9367803 L12.4293728,31.5749053 C12.23872,31.3842524 12.23872,31.075143 12.4293728,30.8844902 C12.6200257,30.6938373 12.9291351,30.6938373 13.119788,30.8844902 L14.4812542,32.2459569 L14.5001957,32.2223156 C15.1063802,31.4312482 15.3805045,30.4446679 15.283571,29.4638413 L11.7771818,25.9593714 L11.71146,25.9530009 C10.8161767,25.8800173 9.91992097,26.1153588 9.17548839,26.6295341 L8.9963189,26.7609965 L10.3581539,28.122856 C10.5453403,28.3100425 10.5487437,28.6114171 10.368364,28.8027559 L10.3581539,28.8132712 C10.167501,29.003924 9.85839158,29.003924 9.6677387,28.8132712 L8.3054554,27.4509874 C7.89285132,27.0374056 7.93063426,26.3535655 8.39219449,25.9939211 C9.10275812,25.4393349 9.94210653,25.1011913 10.8151371,24.9976666 L9.72988621,23.9118197 C9.34859231,23.5305258 9.34859231,22.9122899 9.72988521,22.530997 L10.0751818,22.1843714 L7.7583993,19.8674961 C7.35462228,19.4637191 7.38134976,18.8006247 7.81775028,18.4319415 C9.01645274,17.4190202 10.4296942,16.5645829 12.1132675,15.9740564 C13.8357911,15.3698378 15.479992,15.1623038 17.0490802,15.2112175 L18.1942499,14.0665835 C20.082504,12.1783294 22.4131039,11.1217489 24.992025,10.7300699 C26.7334154,10.4655926 28.3575351,10.5291823 29.6889788,10.7569141 Z M25.0503976,25.1739105 L19.7481818,30.4763714 L22.065563,32.7938296 L22.1034801,32.7488456 C23.0143955,31.660808 23.7848714,30.3836397 24.3245672,28.8702705 L24.3472337,28.8061846 C24.787405,27.5513612 25.0008444,26.3409418 25.0503976,25.1739105 Z M11.8021818,21.8383714 L10.4203014,23.2214112 L18.0212328,30.8223915 L19.4031818,29.4393714 L11.8021818,21.8383714 Z M18.8846661,14.7569976 L12.4931818,21.1483714 L20.0941818,28.7493714 L26.4856454,22.3579789 C27.661122,21.1825023 28.4856808,19.817739 29.0070684,18.3151307 L22.9275134,12.2355756 C21.4249051,12.7569631 20.0601421,13.5815217 18.8846661,14.7569976 Z M21.1305155,16.4506492 C23.1526947,16.4506492 24.7919948,18.0899493 24.7919948,20.1121285 C24.7919948,22.1343076 23.1526947,23.7736078 21.1305155,23.7736078 C19.1083364,23.7736078 17.4690362,22.1343076 17.4690362,20.1121285 C17.4690362,18.0899493 19.1083364,16.4506492 21.1305155,16.4506492 Z M21.1305155,17.4270437 C19.6475841,17.4270437 18.4454307,18.6291971 18.4454307,20.1121285 C18.4454307,21.5950599 19.6475841,22.7972133 21.1305155,22.7972133 C22.6134469,22.7972133 23.8156003,21.5950599 23.8156003,20.1121285 C23.8156003,18.6291971 22.6134469,17.4270437 21.1305155,17.4270437 Z M12.4364489,16.895414 C11.0156101,17.3937844 9.80176346,18.0948815 8.75647651,18.9249461 L8.44872951,19.1770451 L10.7661818,21.4943714 L16.0697507,16.1922039 C14.902421,16.2416771 13.691673,16.4551125 12.4364489,16.895414 Z M25.1386357,11.6953945 C24.7505508,11.7543357 24.3689762,11.8293616 23.9946176,11.9211274 L29.3215166,17.2480264 C29.4132824,16.8736678 29.4883083,16.4920932 29.5472495,16.1040083 C29.7737524,14.6126519 29.7425288,13.2088155 29.5729196,12.0331935 L29.5234194,11.7191455 L29.4766591,11.7112717 C28.2492854,11.5064439 26.7447118,11.4514683 25.1386357,11.6953945 Z" id="rocket" transform="translate(19.0787, 22.1639) rotate(-45) translate(-19.0787, -22.1639)"></path>
            </g>
        </g>
    </g>
</svg>