<?xml version="1.0" encoding="UTF-8"?>
<svg viewBox="0 0 30 30" version="1.1" xmlns="http://www.w3.org/2000/svg" xmlns:xlink="http://www.w3.org/1999/xlink">
    <title>reset-outlined</title>
    <g id="SAM" stroke="none" stroke-width="1" fill="none" fill-rule="evenodd">
        <path d="M14.675,0.205940373 C22.7795748,0.205940373 29.35,6.77606891 29.35,14.8809404 C29.35,22.9858118 22.7795748,29.5559404 14.675,29.5559404 C6.57076705,29.5559404 0,22.9851733 0,14.8809404 C0,6.77636554 6.57012854,0.205940373 14.675,0.205940373 Z M14.675,1.43094037 C7.24673295,1.43094037 1.225,7.45267332 1.225,14.8809404 C1.225,22.3092074 7.24673295,28.3309404 14.675,28.3309404 C22.1032671,28.3309404 28.125,22.3092074 28.125,14.8809404 C28.125,7.45267332 22.1032671,1.43094037 14.675,1.43094037 Z M23.6360438,19.5970264 C23.3367246,19.6955123 23.0139966,19.5341484 22.9131939,19.2356014 L22.2649238,17.2850541 C19.3677873,25.6379861 6.91870602,23.8652828 6.70070367,14.8985021 C6.75113012,10.5413665 10.3177403,7.04660164 14.675,7.0848391 C15.4666927,7.03894387 19.2645231,7.58968664 18.6908327,8.80591025 C18.5414081,9.08410864 18.1952483,9.18923867 17.9163507,9.04112331 C16.9187043,8.50944537 15.8054775,8.23163125 14.675,8.23221987 C5.62216575,8.5879079 5.61642885,21.2090963 14.675,21.5647844 C17.9555265,21.5920124 20.7858976,19.2687897 21.3986513,16.0458829 C20.6872752,16.5564673 19.6775801,17.3137386 18.7195172,18.0193778 C18.5555493,18.1423537 18.3384299,18.1685123 18.1499457,18.0879999 C17.9614615,18.0074875 17.8302478,17.8325359 17.8057315,17.6290476 C17.7812152,17.4255593 17.8671209,17.2244491 18.0310887,17.1014732 C20.5553264,15.2312425 21.2839132,14.6403414 21.9034988,14.3592332 C22.0510927,14.3130895 22.2110645,14.3284841 22.3471502,14.4019271 C22.4832359,14.4753702 22.5839093,14.6006413 22.6263487,14.7493426 L23.9974687,18.8856503 C24.0886271,19.1814488 23.9286982,19.4962295 23.6360438,19.5970264 L23.6360438,19.5970264 Z" id="reset-outlined" fill="#000000" fill-rule="nonzero"></path>
    </g>
</svg>