<?xml version="1.0" encoding="UTF-8"?>
<svg viewBox="0 0 21 24" version="1.1" xmlns="http://www.w3.org/2000/svg" xmlns:xlink="http://www.w3.org/1999/xlink">
    <title>reset</title>
    <g id="SAM" stroke="none" stroke-width="1" fill="none" fill-rule="evenodd">
        <g id="sam.argonprotocol.org" transform="translate(-369, -105)" fill="#000000">
            <path d="M378.660862,106.059712 C379.070684,106.325584 379.187453,106.873384 378.921574,107.283264 L378.104584,108.541629 C378.600025,108.476803 379.116501,108.441347 379.65382,108.441347 C385.348381,108.441347 389.974261,113.017363 389.974261,118.679229 C389.974261,124.341165 385.348381,128.917153 379.65382,128.917153 C373.959188,128.917153 369.33333,124.341165 369.33333,118.679229 C369.33333,116.5735 369.979655,114.609451 371.076863,112.98304 C371.350088,112.57803 371.899913,112.471169 372.304923,112.744407 C372.709905,113.017646 372.816766,113.56745 372.543556,113.97246 C371.635647,115.318272 371.102552,116.939942 371.102552,118.679229 C371.102552,123.349622 374.921787,127.14793 379.65382,127.14793 C384.385782,127.14793 388.205038,123.349622 388.205038,118.679229 C388.205038,114.008906 384.385782,110.21057 379.65382,110.21057 C379.249689,110.21057 378.859979,110.234028 378.484552,110.277369 L379.755161,111.094431 C380.165975,111.358823 380.284583,111.906221 380.020191,112.317034 C379.755727,112.727848 379.20833,112.846527 378.797587,112.582064 L375.71914,110.600534 C375.521412,110.473292 375.382493,110.272521 375.333096,110.042621 C375.283628,109.812721 375.327788,109.572609 375.455738,109.375327 L377.437267,106.320474 C377.703146,105.910588 378.250968,105.793847 378.660862,106.059712 Z" id="reset"></path>
        </g>
    </g>
</svg>