<?xml version="1.0" encoding="UTF-8"?>
<svg viewBox="0 0 30 29" version="1.1" xmlns="http://www.w3.org/2000/svg" xmlns:xlink="http://www.w3.org/1999/xlink">
    <title>reset-solid</title>
    <g id="SAM" stroke="none" stroke-width="1" fill="none" fill-rule="evenodd">
        <path d="M14.675,0.205940373 C6.5859656,0.205940373 0,6.63700957 0,14.5482 C0.803166536,33.5717731 28.5525704,33.5660362 29.35,14.5482 C29.35,6.63700957 22.7640344,0.205940373 14.675,0.205940373 Z M23.6360438,19.2467242 C23.3367246,19.3452102 23.0139966,19.1838462 22.9131939,18.8852992 L22.2649238,16.9347519 C19.3677873,25.2876839 6.91870602,23.5149806 6.70070367,14.5482 C6.75113012,10.1910643 10.3177403,6.69629948 14.675,6.73453693 C15.4666927,6.6886417 19.2645231,7.23938447 18.6908327,8.45560808 C18.5414081,8.73380648 18.1952483,8.8389365 17.9163507,8.69082114 C16.9187043,8.1591432 15.8054775,7.88132908 14.675,7.8819177 C5.62216575,8.23760574 5.61642885,20.8587942 14.675,21.2144822 C17.9555265,21.2417102 20.7858976,18.9184875 21.3986513,15.6955807 C20.6872752,16.2061652 19.6775801,16.9634365 18.7195172,17.6690756 C18.5555493,17.7920515 18.3384299,17.8182101 18.1499457,17.7376977 C17.9614615,17.6571854 17.8302478,17.4822337 17.8057315,17.2787454 C17.7812152,17.0752572 17.8671209,16.8741469 18.0310887,16.751171 C20.5553264,14.8809404 21.2839132,14.2900393 21.9034988,14.008931 C22.0510927,13.9627873 22.2110645,13.9781819 22.3471502,14.051625 C22.4832359,14.125068 22.5839093,14.2503391 22.6263487,14.3990405 L23.9974687,18.5353481 C24.0886271,18.8311467 23.9286982,19.1459273 23.6360438,19.2467242 L23.6360438,19.2467242 Z" id="reset-solid" fill="#000000" fill-rule="nonzero"></path>
    </g>
</svg>