<?xml version="1.0" encoding="UTF-8"?>
<svg viewBox="0 0 30 31" version="1.1" xmlns="http://www.w3.org/2000/svg" xmlns:xlink="http://www.w3.org/1999/xlink">
    <title>settings-solid</title>
    <g id="SAM" stroke="none" stroke-width="1" fill="none" fill-rule="evenodd">
        <path d="M16.4,0.205940373 C17.34625,0.205940373 18.145,0.914690373 18.2575,1.85594037 L18.55625,4.20094037 C19.15375,4.39469037 19.72875,4.63344037 20.275,4.91219037 L22.1425,3.46094037 C22.90125,2.87469037 23.96625,2.94219037 24.62375,3.61969037 L26.5925,5.58844037 C27.26375,6.23969037 27.33125,7.30594037 26.745,8.06219037 L25.29375,9.93094037 C25.57375,10.4771904 25.8125,11.0521904 26.005,11.6484404 L28.355,11.9471904 C29.29125,12.0609404 30,12.8596904 30,13.8059404 L30,16.6059404 C30,17.5521904 29.29125,18.3509404 28.35,18.4634404 L26.005,18.7621904 C25.81125,19.3584404 25.5725,19.9334404 25.29375,20.4796904 L26.745,22.3471904 C27.3325,23.1046904 27.26375,24.1709404 26.58625,24.8284404 L24.6175,26.7971904 C23.96625,27.4684404 22.89875,27.5371904 22.14375,26.9496904 L20.275,25.4984404 C19.72875,25.7784404 19.15375,26.0171904 18.5575,26.2096904 L18.25875,28.5596904 C18.145,29.4971904 17.34625,30.2059404 16.4,30.2059404 L13.6,30.2059404 C12.65375,30.2059404 11.855,29.4971904 11.7425,28.5559404 L11.44375,26.2109404 C10.8475,26.0171904 10.2725,25.7784404 9.72625,25.4996904 L7.85875,26.9509404 C7.10125,27.5371904 6.035,27.4696904 5.3775,26.7934404 L3.40875,24.8246904 C2.7375,24.1734404 2.67,23.1071904 3.25625,22.3509404 L4.7075,20.4821904 C4.4275,19.9359404 4.18875,19.3609404 3.99625,18.7646904 L1.64625,18.4659404 C0.70875,18.3509404 0,17.5521904 0,16.6059404 L0,13.8059404 C0,12.8596904 0.70875,12.0609404 1.65,11.9484404 L3.995,11.6496904 C4.18875,11.0534404 4.4275,10.4784404 4.70625,9.93219037 L3.25625,8.06469037 C2.66875,7.30719037 2.7375,6.23969037 3.415,5.58219037 L5.38375,3.61344037 C6.035,2.94219037 7.1025,2.87594037 7.8575,3.46094037 L9.725,4.91344037 C10.27125,4.63469037 10.84625,4.39594037 11.44375,4.20219037 L11.7425,1.85219037 C11.855,0.914690373 12.65375,0.205940373 13.6,0.205940373 L16.4,0.205940373 Z M15,8.95594037 C11.55375,8.95594037 8.75,11.7596904 8.75,15.2059404 C8.75,18.6521904 11.55375,21.4559404 15,21.4559404 C18.44625,21.4559404 21.25,18.6521904 21.25,15.2059404 C21.25,11.7596904 18.44625,8.95594037 15,8.95594037 Z" id="settings-solid" fill="#000000" fill-rule="nonzero"></path>
    </g>
</svg>