<?xml version="1.0" encoding="UTF-8"?>
<svg  viewBox="0 0 37 37" version="1.1" xmlns="http://www.w3.org/2000/svg" xmlns:xlink="http://www.w3.org/1999/xlink">
    <title>Combined Shape</title>
    <g id="SAM" stroke="none" stroke-width="1" fill="none" fill-rule="evenodd">
        <g id="SAM-Player" transform="translate(-156, -1060)" fill="#000000">
            <g id="Group-4" transform="translate(156.6404, 1060.378)">
                <path d="M19.7642939,0.086702929 C22.9320634,0.398700296 25.9422283,1.54286984 28.4999789,3.3797967 L28.4999789,1.5 L31.4999661,1.5 L31.4999661,7.49998966 C31.4999661,8.32840825 30.828395,8.9999871 29.9999764,8.9999871 L23.9999866,8.9999871 L23.9999866,6 L26.9999965,6 C24.8158652,4.36189002 22.2139997,3.34249177 19.4702944,3.07225223 C16.0167003,2.73209781 12.5518562,3.59996633 9.66646111,5.52797303 C6.78091604,7.45597974 4.65331968,10.3248448 3.6459214,13.6457342 C2.63852312,16.9666235 2.81372282,20.5340674 4.14182055,23.7403119 C5.46991828,26.9464064 7.86856418,29.5928519 10.929009,31.2287491 C13.9896037,32.8646463 17.5226977,33.3887454 20.9263419,32.7117966 C24.3300011,32.0346977 27.3935958,30.1984009 29.5951421,27.5158055 C31.7966883,24.83321 32.9999661,21.4703658 32.9999661,17.9999717 L35.9999661,17.9999717 C35.9999661,22.1644146 34.5560281,26.1998577 31.9141681,29.4190022 C29.2723126,32.6381467 25.5959989,34.8416429 21.5116259,35.6540416 C17.4272979,36.4665902 13.1875551,35.8376412 9.51481137,33.8745946 C5.84221764,31.911548 2.96387256,28.7357534 1.37012529,24.88826 C-0.223471992,21.0409165 -0.433771632,16.7599238 0.775076302,12.7748957 C1.98392424,8.78982246 4.53721987,5.34717834 7.99981396,3.03356729 C11.462258,0.719960747 15.6199509,-0.321478474 19.7642939,0.086702929 Z M21.2514035,9.97121535 L21.2514035,25.2439426 L17.1050967,25.2439426 L17.1050967,13.7893972 L17.0156081,13.7893972 L13.674699,15.7879767 L13.674699,12.2680903 L17.4332217,9.97121535 L21.2514035,9.97121535 Z M35.9999661,5.99999223 L35.9999661,11.999982 C35.9999661,12.8284006 35.3283948,13.4999794 34.4999661,13.4999794 L28.4999789,13.4999794 L28.4999789,10.4999922 L32.9999661,10.4999922 L32.9999661,5.99999223 L35.9999661,5.99999223 Z" id="Combined-Shape"></path>
            </g>
        </g>
    </g>
</svg>