<?xml version="1.0" encoding="UTF-8"?>
<svg viewBox="0 0 43 43" version="1.1" xmlns="http://www.w3.org/2000/svg" xmlns:xlink="http://www.w3.org/1999/xlink">
    <title>bitcoin</title>
    <g id="SAM" stroke="none" stroke-width="1" fill="none" fill-rule="evenodd" opacity="0.5">
        <g id="SAM-Player" transform="translate(-47, -43)" fill="#000000" fill-rule="nonzero">
            <path d="M68.1334012,43.8183676 C73.7426981,43.8183676 79.016241,46.0027778 82.9826981,49.9690707 C86.948991,53.9355278 89.1334012,59.2090707 89.1334012,64.8183676 C89.1334012,70.4276645 86.948991,75.7012074 82.9826981,79.6676645 C79.016241,83.6339574 73.7426981,85.8183676 68.1334012,85.8183676 C62.5241043,85.8183676 57.2505614,83.6339574 53.2841043,79.6676645 C49.3178114,75.7012074 47.1334012,70.4276645 47.1334012,64.8183676 C47.1334012,61.0327074 48.1519832,57.3216957 50.0791434,54.0865473 C51.9501121,50.9454067 54.6200653,48.3332856 57.8003348,46.5323715 C58.0961395,46.3651098 58.4715145,46.4689614 58.6388582,46.764602 C58.806284,47.0602426 58.7022684,47.4356996 58.4066278,47.6031254 C55.412077,49.2987934 52.8979832,51.7585004 51.1361981,54.7162192 C49.3225692,57.7609731 48.3638699,61.2542739 48.3638699,64.8183676 C48.3638699,70.0990473 50.4202293,75.0635785 54.1542098,78.797559 C57.8881903,82.5315395 62.8527215,84.5878989 68.1334012,84.5878989 C73.4140809,84.5878989 78.3786121,82.5315395 82.1125926,78.797559 C85.8465731,75.0635785 87.9029324,70.0990473 87.9029324,64.8183676 C87.9029324,59.5376879 85.8465731,54.5731567 82.1125926,50.8391762 C78.3786121,47.1051957 73.4140809,45.0488364 68.1334012,45.0488364 C65.5399012,45.0488364 63.0189168,45.5431567 60.6405848,46.5180981 C60.326159,46.6468871 59.9668621,46.4965239 59.837991,46.1820981 C59.7090379,45.8676723 59.8594832,45.5083754 60.173909,45.3795043 C62.7010457,44.3436137 65.3790379,43.8183676 68.1334012,43.8183676 Z M68.1334012,46.4528012 C73.039034,46.4528012 77.6509949,48.3631449 81.1198504,51.8319184 C84.5886239,55.3007739 86.4989676,59.9127348 86.4989676,64.8183676 C86.4989676,69.7240004 84.5886239,74.3359614 81.1198504,77.8048168 C77.6509949,81.2735903 73.039034,83.183934 68.1334012,83.183934 C66.0000145,83.183934 63.9094481,82.8212739 61.9196981,82.1059614 C61.5999403,81.9910356 61.433909,81.6386293 61.5488348,81.3189535 C61.6637606,80.9991137 62.0161668,80.8331645 62.3359246,80.9480903 C64.1917996,81.6151684 66.1423387,81.9534653 68.1334012,81.9534653 C77.5816785,81.9534653 85.2684989,74.2666449 85.2684989,64.8183676 C85.2684989,55.3700903 77.5816785,47.6832699 68.1334012,47.6832699 C58.6851239,47.6832699 50.9983035,55.3700903 50.9983035,64.8183676 C50.9983035,71.1072934 54.4345926,76.8807348 59.9662059,79.8857035 C60.2647176,80.0478793 60.3752957,80.4213676 60.2131199,80.7199614 C60.0509442,81.0184731 59.6774559,81.1290512 59.3788621,80.9668754 C53.4505457,77.7464926 49.7678348,71.5587114 49.7678348,64.8183676 C49.7678348,59.9127348 51.6781785,55.3007739 55.146952,51.8319184 C58.6158074,48.3631449 63.2277684,46.4528012 68.1334012,46.4528012 Z M67.1048114,53.411184 C68.0442332,53.1642699 69.0216356,53.7451332 69.2838074,54.7058012 L69.5079168,55.5270981 C72.1086356,54.9268754 74.7735848,56.5457621 75.4965262,59.1943871 C75.7430301,60.0977973 75.7417176,61.0225356 75.4966903,61.9023207 C76.9801434,62.5609496 78.0940457,63.8517114 78.5319285,65.4559145 C78.9155887,66.8614379 78.7306903,68.3215121 78.0113582,69.5672387 C77.3143387,70.7743285 76.1945301,71.6325395 74.8583231,71.9837153 L74.0570418,72.1942895 L74.2197098,72.7902465 C74.3497293,73.2665199 74.2874676,73.7605121 74.044491,74.1813324 C73.8099637,74.5874692 73.4332762,74.8762192 72.9837449,74.9943442 C72.0444871,75.2413403 71.0669207,74.6603949 70.8047489,73.699727 L70.6389637,73.0925317 L69.3716629,73.4255785 L69.5343309,74.0215356 C69.6643504,74.497727 69.6020887,74.9918012 69.3591121,75.4126215 C69.1246668,75.8187582 68.7478973,76.1075082 68.298366,76.2256332 C68.1521864,76.2640239 68.0050223,76.2823989 67.8597449,76.2823989 C67.0720809,76.2823989 66.3408543,75.742141 66.119452,74.930934 L65.9536668,74.3237387 L63.3813309,74.9997582 C62.4421551,75.2465082 61.4646707,74.665891 61.2024168,73.705141 C61.0724793,73.2288676 61.134741,72.7347934 61.3777176,72.3139731 C61.6121629,71.9078364 61.9889324,71.6191684 62.4384637,71.5010434 L63.649327,71.1828442 L61.0078387,61.5050434 L59.7857371,61.8262778 C58.8462332,62.0731098 57.8689949,61.4922465 57.6068231,60.5315785 C57.4768035,60.0553051 57.5390653,59.5612309 57.7821239,59.1404106 C58.0165692,58.7342739 58.3933387,58.4456059 58.8428699,58.3274809 L61.4039676,57.6544965 L61.1834676,56.8465707 C61.0534481,56.3702973 61.1157098,55.8763051 61.3586864,55.4554848 C61.5932137,55.0493481 61.9699012,54.7605981 62.4194324,54.6424731 C63.3586082,54.395559 64.3362567,54.9763403 64.5984285,55.9370903 L64.8220457,56.7562543 L66.0893465,56.4232074 L65.8688465,55.6152817 C65.738827,55.1390903 65.8010887,54.645016 66.0440653,54.2241957 C66.2785106,53.818059 66.6552801,53.529309 67.1048114,53.411184 Z M68.0965692,55.0298246 C68.0112567,54.7175317 67.7064285,54.5250043 67.4174324,54.6012934 C67.2879051,54.6353364 67.1784754,54.7199106 67.1094871,54.8395121 C67.0319676,54.9737973 67.0128543,55.1342504 67.0557567,55.2913403 L67.439827,56.6985043 C67.4830574,56.8569067 67.4611551,57.0259731 67.3790418,57.1681332 C67.2970106,57.3102934 67.1614949,57.4137348 67.0026824,57.4554887 L64.5452723,58.1013207 C64.2185418,58.1869614 63.8841824,57.9938598 63.7953426,57.6682778 L63.4112723,56.2611957 C63.3259598,55.9489028 63.0212137,55.7562934 62.7321356,55.8326645 C62.6026082,55.8667074 62.4931785,55.9512817 62.4241903,56.0708832 C62.3465887,56.2051684 62.3275574,56.3656215 62.3703778,56.5227114 L62.7544481,57.9297934 C62.7976785,58.0882778 62.7757762,58.2573442 62.6937449,58.3995043 C62.6116317,58.5416645 62.476116,58.6451059 62.3173035,58.6868598 L59.1555731,59.5177543 C59.0260457,59.5517973 58.9166981,59.6362895 58.8476278,59.755891 C58.7701082,59.8901762 58.751077,60.0506293 58.7938973,60.2077192 C58.8791278,60.5200121 59.1841199,60.7124574 59.472952,60.6362504 L61.2845301,60.160141 C61.6109324,60.0745824 61.9456199,60.2675199 62.0344598,60.593184 L64.9998895,71.458059 C65.0431199,71.6164614 65.0212176,71.7855278 64.9391864,71.9276879 C64.8570731,72.0698481 64.7215574,72.1732895 64.5627449,72.2150434 L62.7511668,72.6911528 C62.6216395,72.7251137 62.5122918,72.8096879 62.4431395,72.9293715 C62.3656199,73.0635746 62.3465887,73.2241098 62.389409,73.3811996 C62.4746395,73.6934926 62.7788934,73.8856098 63.0684637,73.8097309 L66.2302762,72.9788364 C66.2826942,72.9651371 66.3352762,72.9584926 66.3870379,72.9584926 C66.657741,72.9584926 66.9054754,73.1384692 66.9801239,73.4118793 L67.3063621,74.6069926 C67.3915926,74.9192856 67.6960926,75.1118129 67.9854989,75.0355239 C68.1150262,75.0014809 68.2244559,74.9169067 68.2934442,74.7973051 C68.3709637,74.6630199 68.390077,74.5025668 68.3471746,74.345477 L68.0210184,73.1502817 C67.9777879,72.9918793 67.9996903,72.8228129 68.0818035,72.6806528 C68.1638348,72.5384926 68.2993504,72.4350512 68.4581629,72.3932973 L70.9155731,71.7474653 C71.2420574,71.6618246 71.5766629,71.8548442 71.6655028,72.1805082 L71.991741,73.3756215 C72.0769715,73.6879145 72.3813895,73.8801957 72.6708778,73.8041528 C72.8004051,73.7701098 72.9097528,73.6855356 72.9788231,73.565934 C73.0563426,73.4316489 73.0753739,73.2711957 73.0325535,73.1141059 L72.7063153,71.9189926 C72.6630848,71.7605903 72.6849871,71.5915239 72.7671004,71.4493637 C72.8491317,71.3072035 72.9846473,71.2037621 73.1434598,71.1620082 L74.5454559,70.7936059 C75.561659,70.5265121 76.4141278,69.872477 76.9456903,68.9519223 C77.4995653,67.9927309 77.6413153,66.8661957 77.3447723,65.7798559 C76.9614403,64.3754809 75.9119324,63.2816762 74.5374168,62.8540473 C74.3719598,62.8026137 74.235952,62.6838324 74.1626981,62.5268246 C74.0893621,62.3698989 74.0856707,62.1893481 74.1524442,62.0294692 C74.4857371,61.2318793 74.5399598,60.3634965 74.3092879,59.5184106 C73.7499989,57.4691059 71.671327,56.2283012 69.6760809,56.752891 L69.2305692,56.8699496 C68.9043309,56.9556723 68.5695614,56.7625707 68.4806395,56.4369067 L68.0965692,55.0298246 Z M72.6696473,63.9204535 C74.2416942,63.5073442 75.8720653,64.4588246 76.3040418,66.0413715 C76.5150262,66.8145981 76.4119129,67.620309 76.0135692,68.3101918 C75.6203934,68.9910512 74.9863739,69.4757739 74.228159,69.6750278 L66.7906317,71.6295864 C66.7382137,71.6432856 66.6856317,71.6499301 66.6338699,71.6499301 C66.3630848,71.6499301 66.1153504,71.4698715 66.040784,71.1965434 L64.7949754,66.6319965 C64.7517449,66.4735942 64.7736473,66.3045278 64.8557606,66.1623676 C64.9377918,66.0202074 65.0733074,65.916766 65.2321199,65.8750121 L72.6696473,63.9204535 Z M75.1168856,66.3653949 C74.8619324,65.431141 73.9043817,64.8682426 72.9822684,65.1105629 L66.1454559,66.9072114 L67.067241,70.284602 L73.9152918,68.4850004 C74.3535028,68.3698285 74.7201824,68.0892817 74.9479012,67.6949574 C75.1807879,67.2916098 75.2408348,66.8194379 75.1168856,66.3653949 Z M69.9935418,57.8713871 C71.4105496,57.4990473 72.8797293,58.3552074 73.2685574,59.7799262 C73.4584598,60.4757153 73.3655184,61.2009535 73.0067957,61.8220942 C72.6521746,62.4361801 72.0800067,62.8734067 71.395784,63.0532192 L64.914741,64.756434 C64.8623231,64.7701332 64.809741,64.7767778 64.7579793,64.7767778 C64.4872762,64.7767778 64.2395418,64.5967192 64.1648934,64.323391 L63.0753543,60.3315864 C63.0321239,60.173184 63.0540262,60.0041176 63.1360574,59.8619574 C63.2181707,59.7197973 63.3536864,59.6163559 63.5124989,59.574602 L69.9935418,57.8713871 Z M72.0814832,60.1038676 C71.8695965,59.3276059 71.0734832,58.8596996 70.3062449,59.0614965 L64.4258348,60.6068012 L65.1914324,63.4114496 L71.0830809,61.8631098 C71.4472996,61.7674614 71.7520457,61.5343285 71.9412098,61.2067778 C72.1344754,60.8721723 72.1842684,60.4804731 72.0814832,60.1038676 Z" id="bitcoin"></path>
        </g>
    </g>
</svg>