<?xml version="1.0" encoding="UTF-8"?>
<svg viewBox="0 0 512 512" version="1.1" xmlns="http://www.w3.org/2000/svg" xmlns:xlink="http://www.w3.org/1999/xlink">
    <title>Combined Shape</title>
    <g id="Page-1" stroke="none" stroke-width="1" fill="none" fill-rule="evenodd">
        <path d="M504.68,7.32 C514.444394,17.0843944 514.444394,32.9156056 504.68,42.68 L291.359607,255.999704 L504.68,469.32 C511.831917,476.470031 513.971723,487.224625 510.101389,496.567717 C506.231054,505.910809 497.113004,512.000023 487,512.000023 C480.367584,512.008953 474.00499,509.374667 469.32,504.68 L255.999607,291.359704 L42.68,504.68 C37.9950096,509.374667 31.6324165,512.008953 25,512.000023 C14.8869956,512.000023 5.76894559,505.910809 1.89861121,496.567717 C-1.97172317,487.224625 0.16808299,476.470031 7.32,469.32 L220.639607,255.999704 L7.32,42.68 C-2.44439438,32.9156056 -2.44439438,17.0843944 7.32,7.32 C17.0843944,-2.44439438 32.9156056,-2.44439438 42.68,7.32 L255.999607,220.639704 L469.32,7.32 C479.084394,-2.44439438 494.915606,-2.44439438 504.68,7.32 Z" id="Combined-Shape" fill="#000000" fill-rule="nonzero"></path>
    </g>
</svg>