<?xml version="1.0" encoding="UTF-8"?>
<svg viewBox="0 0 27 25" version="1.1" xmlns="http://www.w3.org/2000/svg" xmlns:xlink="http://www.w3.org/1999/xlink">
    <title>Combined Shape</title>
    <g id="SAM" stroke="none" stroke-width="1" fill="none" fill-rule="evenodd">
        <g id="sam.argonprotocol.org-copy" transform="translate(-28, -337)" fill="#000000" fill-rule="nonzero">
            <path d="M43.6602776,337.16562 L43.7301887,337.177635 C47.1134915,338.088573 49.4768836,341.203434 49.4768836,344.753138 C49.4768836,345.286711 49.4180906,345.83062 49.3014079,346.375933 L49.2536157,346.599289 L49.4717587,346.667004 C50.0436979,346.844543 50.5809857,347.07888 51.075689,347.366567 C54.1445198,349.150771 55.6488772,352.75953 54.7348231,356.14058 C54.6840112,356.328221 54.495685,356.44217 54.3051119,356.400836 C54.1164361,356.359188 53.9931603,356.176274 54.0255386,355.984914 C54.3891971,353.84294 53.3392616,351.653191 51.4147453,350.534256 C50.8919238,350.229797 50.3243245,350.019593 49.7267041,349.90193 L49.3923834,349.836107 L49.4299325,350.174771 C49.4611438,350.456273 49.4768836,350.733501 49.4768836,351.006249 C49.4768836,354.012733 47.7256595,356.738324 45.005498,358.00211 L44.6973855,358.145259 L44.925705,358.396845 C45.3045741,358.814321 45.7421467,359.170496 46.2283353,359.453105 C48.1522179,360.572688 50.5743969,360.402721 52.2566517,359.027386 C52.4070278,358.904615 52.6274514,358.921519 52.7568,359.065401 C52.8867878,359.209953 52.8805755,359.430159 52.742714,359.566929 C50.2554407,362.032806 46.3743132,362.509521 43.3068431,360.724227 C42.8088957,360.434751 42.3438909,360.091447 41.9197528,359.699981 L41.7501935,359.543483 L41.5806341,359.699981 C41.1552657,360.092583 40.6901078,360.436149 40.1938452,360.724052 C37.1255111,362.509502 33.2449799,362.03284 30.7576116,359.566868 C30.6198559,359.430203 30.6136341,359.209551 30.7433536,359.06566 C30.8729511,358.921139 31.092716,358.904387 31.2440954,359.027679 C32.9273402,360.402125 35.3482008,360.572026 37.2721051,359.453073 C37.7592504,359.169275 38.1966346,358.813415 38.574682,358.396845 L38.8029814,358.145282 L38.494908,358.002119 C35.7750249,356.738184 34.0235034,354.01239 34.0235034,351.006249 C34.0235034,350.734761 34.0390961,350.457508 34.0698984,350.174247 L34.1066607,349.836178 L33.7730175,349.90194 C33.1760358,350.019608 32.608466,350.229801 32.0849903,350.534278 C30.1608202,351.653012 29.111159,353.842574 29.4742459,355.98498 C29.5069868,356.176697 29.3836931,356.359474 29.1942139,356.400934 C29.0035364,356.441765 28.8158136,356.328047 28.7648911,356.140361 C27.8514954,352.759549 29.3558642,349.150762 32.4241026,347.366556 C32.9188408,347.078849 33.4561115,346.844539 34.0267013,346.667644 L34.2446362,346.60008 L34.1972125,346.376895 C34.0816958,345.833252 34.0235034,345.289227 34.0235034,344.753138 C34.0235034,341.203434 36.3868954,338.088573 39.7688621,337.177998 C39.9555981,337.126415 40.1496954,337.232357 40.209585,337.418234 C40.2687919,337.602757 40.1727846,337.801209 39.9907841,337.869641 C37.9564082,338.632451 36.5914611,340.640291 36.5914611,342.866344 C36.5914611,343.459503 36.6903335,344.043367 36.8800452,344.606533 L36.9879689,344.926908 L37.2626748,344.729869 C38.5769324,343.787187 40.1424011,343.279559 41.7501935,343.279559 C43.3579858,343.279559 44.9234545,343.787187 46.2377122,344.729869 L46.512418,344.926908 L46.6203417,344.606533 C46.8100534,344.043367 46.9089259,343.459503 46.9089259,342.866344 C46.9089259,340.640369 45.5441025,338.632256 43.5093652,337.869552 C43.328008,337.801588 43.2316607,337.602552 43.2908945,337.417946 C43.3504229,337.232057 43.5439295,337.126377 43.7301887,337.177635 Z M43.0217179,351.960538 C42.7230077,352.358091 42.2557156,352.597024 41.7501935,352.597024 C41.2446319,352.597024 40.7774245,352.358061 40.4794145,351.960714 L40.0569675,352.224808 C40.7243478,353.525993 40.8697182,355.012478 40.4676017,356.446341 C40.037909,357.980031 39.0338073,359.2706 37.6386477,360.081739 C37.3007791,360.278877 36.9442408,360.442445 36.5732946,360.571678 L34.8486794,361.172594 L36.6713193,361.057262 C37.7761956,360.987399 38.8554475,360.661957 39.8288831,360.096151 C40.4403248,359.740218 40.9971038,359.294763 41.4845475,358.77173 C41.6180461,358.627638 41.883568,358.627638 42.0165657,358.771191 C42.5045103,359.294763 43.0612893,359.740218 43.6725899,360.096069 C44.6443892,360.661911 45.7240311,360.987309 46.829672,361.057262 L48.652558,361.172594 L46.927706,360.571678 C46.5597687,360.443493 46.2032644,360.279726 45.8623529,360.081739 C44.4675156,359.270787 43.4631827,357.979767 43.0334092,356.446378 C42.6312959,355.011939 42.7766229,353.526051 43.444033,352.224808 Z M48.6356983,349.790871 L48.4084527,349.802438 C48.2090983,349.812584 48.004124,349.837974 47.7690608,349.878823 L47.5281265,349.920693 L47.5646717,350.162492 C47.6118427,350.474596 47.636109,350.749853 47.636109,351.006249 C47.636109,353.395328 46.2242673,355.511024 44.0367819,356.427459 L43.8124318,356.521449 L43.900241,356.74829 C43.9722814,356.934394 44.0605118,357.120987 44.1713689,357.327778 L44.2793091,357.529128 L44.4895446,357.43972 C47.0677857,356.343248 48.7497005,353.812555 48.7497005,351.006249 C48.7497005,350.70219 48.7219534,350.382173 48.6685426,350.016028 L48.6356983,349.790871 Z M34.8647194,349.789615 L34.8318345,350.015482 C34.7784031,350.382471 34.7506865,350.702291 34.7506865,351.006249 C34.7506865,353.812555 36.4326013,356.343248 39.0108424,357.43972 L39.2210779,357.529128 L39.3290181,357.327778 C39.437747,357.124957 39.5266029,356.936708 39.5998921,356.748943 L39.6885969,356.521682 L39.4635743,356.427446 C37.2764147,355.511491 35.864278,353.395602 35.864278,351.006249 C35.864278,350.749926 35.8885224,350.474773 35.9357266,350.161803 L35.9721869,349.920067 L35.7313262,349.87821 C35.5007129,349.838134 35.2942106,349.812692 35.0926397,349.801861 L34.8647194,349.789615 Z M36.6648454,350.117727 L36.626759,350.458125 C36.6034354,350.666579 36.5914611,350.84036 36.5914611,351.006249 C36.5914611,353.024745 37.7470336,354.82584 39.5626538,355.672176 L39.8740551,355.817333 L39.9163737,355.476377 C40.0535808,354.370917 39.8342482,353.274088 39.2787805,352.318838 C38.7441061,351.399827 37.9419919,350.689938 36.9774275,350.257776 L36.6648454,350.117727 Z M46.8355415,350.117727 L46.5229594,350.257776 C45.5583951,350.689938 44.7562809,351.399827 44.2216431,352.318775 C43.6661667,353.2734 43.4467984,354.370241 43.5840133,355.475764 L43.6263318,355.816719 L43.9377332,355.671562 C45.7532722,354.825265 46.9089259,353.024222 46.9089259,351.006249 C46.9089259,350.84036 46.8969516,350.666579 46.873628,350.458125 L46.8355415,350.117727 Z M41.7501935,350.142658 C41.2738601,350.142658 40.8866019,350.529649 40.8866019,351.006249 C40.8866019,351.48285 41.2738601,351.869841 41.7501935,351.869841 C42.2265269,351.869841 42.613785,351.48285 42.613785,351.006249 C42.613785,350.529649 42.2265269,350.142658 41.7501935,350.142658 Z M47.1809293,339.911416 L47.5246358,341.699244 C47.5985627,342.083783 47.636109,342.474175 47.636109,342.866344 C47.636109,346.203191 44.9940448,348.915475 41.7501935,348.915475 C38.5063422,348.915475 35.864278,346.203191 35.864278,342.866344 C35.864278,342.47443 35.9018949,342.083452 35.9757239,341.700613 L36.3208652,339.910888 L35.5065816,341.541587 C35.0118318,342.532382 34.7506865,343.628254 34.7506865,344.753138 C34.7506865,345.414176 34.8489199,346.089651 35.0420818,346.760634 C35.0698242,346.856638 35.0570152,346.960178 35.0069947,347.045721 C34.9569442,347.132036 34.8738504,347.193228 34.7757638,347.216372 C34.0558788,347.385383 33.3875137,347.646938 32.7894496,347.99459 C31.8164188,348.56016 30.9998867,349.337363 30.3927634,350.263582 L29.399312,351.779178 L30.7660159,350.589179 C31.0630899,350.330515 31.381431,350.101693 31.7189644,349.905669 C34.5531807,348.258211 38.1570968,349.115233 39.8280279,351.820583 L40.2727534,351.596097 C40.1981573,351.410147 40.1594188,351.211378 40.1594188,351.006249 C40.1594188,350.12944 40.8733842,349.415475 41.7501935,349.415475 C42.6270027,349.415475 43.3409681,350.12944 43.3409681,351.006249 C43.3409681,351.211827 43.3020569,351.410929 43.2273484,351.595282 L43.6717247,351.820583 C45.3433026,349.115174 48.9466495,348.258244 51.7806475,349.905575 C52.1193377,350.10261 52.4381711,350.331827 52.7335412,350.589604 L54.1063227,351.787668 L53.106966,350.264129 C52.4994359,349.337937 51.6827414,348.560418 50.7103156,347.995199 C50.1116198,347.647179 49.4424842,347.38519 48.7224626,347.216297 C48.6251365,347.193332 48.5416459,347.131751 48.4917834,347.046118 C48.4409155,346.959746 48.4281002,346.857031 48.4558508,346.760634 C48.6505828,346.087636 48.7497005,345.411426 48.7497005,344.753138 C48.7497005,343.628208 48.4885328,342.531757 47.9938346,341.540418 L47.1809293,339.911416 Z M41.7501935,345.847517 C40.6841804,345.847517 39.6524493,346.18073 38.7779989,346.801811 L38.4951463,347.002708 L38.7752246,347.207455 C39.6427574,347.841651 40.6722098,348.188292 41.7501935,348.188292 C42.8284106,348.188292 43.8585204,347.841486 44.7252361,347.207401 L45.0050283,347.002706 L44.7224596,346.801862 C43.8487928,346.180876 42.8164432,345.847517 41.7501935,345.847517 Z M41.7501935,344.006742 C40.2171778,344.006742 38.7278633,344.517393 37.5028258,345.458058 L37.3206073,345.597977 L37.4446664,345.791343 C37.5597694,345.97075 37.6853173,346.142713 37.8207453,346.306517 L37.9747995,346.492849 L38.1661827,346.345116 C39.1972256,345.549234 40.4490351,345.120334 41.7501935,345.120334 C43.0513518,345.120334 44.3031613,345.549234 45.3342042,346.345116 L45.5255874,346.492849 L45.6796417,346.306517 C45.8150697,346.142713 45.9406176,345.97075 46.0557205,345.791343 L46.1797797,345.597977 L45.9975611,345.458058 C44.7725236,344.517393 43.2832091,344.006742 41.7501935,344.006742 Z" id="Combined-Shape"></path>
        </g>
    </g>
</svg>