<?xml version="1.0" encoding="UTF-8"?>
<svg viewBox="0 0 31 30" version="1.1" xmlns="http://www.w3.org/2000/svg" xmlns:xlink="http://www.w3.org/1999/xlink">
    <title>download-outline</title>
    <g id="SAM" stroke="none" stroke-width="1" fill="none" fill-rule="evenodd">
        <path d="M15.5,0.530940373 C23.6045748,0.530940373 30.175,7.10106891 30.175,15.2059404 C30.175,23.3108118 23.6045748,29.8809404 15.5,29.8809404 C7.39576705,29.8809404 0.825,23.3101733 0.825,15.2059404 C0.825,7.10136554 7.39512854,0.530940373 15.5,0.530940373 Z M15.5,1.75594037 C8.07173295,1.75594037 2.05,7.77767332 2.05,15.2059404 C2.05,22.6342074 8.07173295,28.6559404 15.5,28.6559404 C22.9282671,28.6559404 28.95,22.6342074 28.95,15.2059404 C28.95,7.77767332 22.9282671,1.75594037 15.5,1.75594037 Z M15.5,6.67141056 C15.8380075,6.67141056 16.1125,6.9459031 16.1125,7.28391056 L16.1125,17.9928927 L20.5307411,13.5746516 C20.7703406,13.3350522 21.1577678,13.3350522 21.3967589,13.5746516 C21.6363558,13.8142485 21.6363558,14.2016639 21.3967589,14.4406205 L16.0933276,19.7440518 C15.9573167,19.8800627 15.7638182,19.9334393 15.5556134,19.8966211 L15.4422407,19.8966538 C15.2356125,19.9333165 15.0407056,19.879433 14.9047607,19.7440518 L9.60132931,14.4406205 C9.36172983,14.201021 9.36172983,13.8136427 9.6010222,13.5749583 C9.84162453,13.3349978 10.2297393,13.3348096 10.4695514,13.5740124 L14.3326626,17.4380553 L14.8875,17.9930265 L14.8875,7.28391056 C14.8875,6.9459031 15.1619925,6.67141056 15.5,6.67141056 Z M21.3479103,21.5404702 C21.6792811,21.5404702 21.9479103,21.8090993 21.9479103,22.1404702 C21.9479103,22.471841 21.6792811,22.7404702 21.3479103,22.7404702 L9.6520897,22.7404702 C9.32071885,22.7404702 9.0520897,22.471841 9.0520897,22.1404702 C9.0520897,21.8090993 9.32071885,21.5404702 9.6520897,21.5404702 L21.3479103,21.5404702 Z" id="download-outline" fill="#000000" fill-rule="nonzero"></path>
    </g>
</svg>