<?xml version="1.0" encoding="UTF-8"?>
<svg viewBox="0 0 31 30" version="1.1" xmlns="http://www.w3.org/2000/svg" xmlns:xlink="http://www.w3.org/1999/xlink">
    <title>github-solid</title>
    <g id="SAM" stroke="none" stroke-width="1" fill="none" fill-rule="evenodd">
        <path d="M22.2588048,7.11366208 L22.3272398,7.30533348 C22.5424563,7.90810789 22.5363981,9.25494398 22.2752476,10.055691 C22.1822733,10.3226709 22.2596586,10.6174834 22.4409532,10.8315653 C23.759751,12.3886485 24.1536967,14.8375171 23.41484,16.8137638 C22.6422793,18.8073014 20.8795607,20.2495853 17.8236727,20.6970961 L16.855,20.8479404 L16.9186076,20.9439812 C17.0864195,21.1978661 17.2705504,21.4765124 17.3514303,21.5984122 L17.3827123,21.6454596 C17.5286855,21.8640708 17.5973582,21.9607845 17.6632914,22.0411086 C17.6768584,22.0575151 17.6768584,22.0575151 17.6907526,22.0738543 L17.6981635,22.0825083 L17.7226626,22.1118106 C17.8123161,22.2329451 17.8458056,22.278775 17.8904919,22.3426414 L17.9900838,22.4924435 C18.2704336,22.9388159 18.3867187,23.3686016 18.3867187,24.0712205 L18.3868855,29.6731946 C17.4531334,29.8586396 16.4878057,29.9559404 15.5,29.9559404 C14.5121552,29.9559404 13.5468674,29.8586651 12.6132071,29.6732773 L12.6132812,24.0712205 C12.6132812,23.2904575 12.7568916,22.8465448 13.1096763,22.3425929 C13.1544062,22.2786963 13.1881001,22.2326132 13.2903454,22.09594 C13.2952355,22.0903385 13.2952355,22.0903385 13.300054,22.0847738 L13.3171577,22.0647448 L13.3339396,22.0445945 C13.4036794,21.9597608 13.4760988,21.8577921 13.6252202,21.634257 C13.6719319,21.5642355 13.8818479,21.2462403 14.0759567,20.9523732 L14.144,20.8479404 L13.1786187,20.6974426 C10.2258937,20.2650286 8.4808279,18.9055868 7.66766864,17.0154958 L7.58409784,16.8109736 C6.84626773,14.8374221 7.24030766,12.3883293 8.55917021,10.83169 C8.7403682,10.6174689 8.81777323,10.3225812 8.72341092,10.0510347 C8.46364233,9.25505687 8.45750438,7.90821801 8.67276022,7.30533348 L8.74142481,7.11301898 L8.94357549,7.14191184 C9.08465389,7.1620758 9.22847156,7.19368523 9.37564659,7.23622331 C9.8866668,7.38392376 10.379829,7.63356456 11.0825863,8.06235488 C11.1624884,8.1111075 11.6065296,8.38599075 11.7238031,8.45681687 C11.9191426,8.57081553 12.0190001,8.59231503 12.2202751,8.59403669 C12.2879073,8.5946152 12.31883,8.59557173 12.2849977,8.60376324 C12.402425,8.57932363 12.9801107,8.4415715 13.1513583,8.40413005 C13.935261,8.2327382 14.6623385,8.14144149 15.5176239,8.14144149 C16.4992716,8.14144149 17.52441,8.28784726 18.4474121,8.56333918 C18.5062558,8.56196182 18.5128129,8.56279015 18.6519149,8.58377889 C18.8809707,8.61834051 19.0326304,8.59908775 19.2723521,8.45924636 C19.3895958,8.38780798 19.8282272,8.11523709 19.8045581,8.12986766 C20.7889818,7.52136631 21.3890202,7.23506731 22.0572367,7.14179711 L22.2588048,7.11366208 Z M15.5,0.455940373 C23.59468,0.455940373 30.25,7.14710906 30.25,15.2645341 C30.25,21.9223532 25.7691962,27.5744642 19.6451613,29.3649614 L19.6445313,24.0712205 C19.6445313,23.202017 19.4839938,22.5560535 19.1851394,22.0329977 L19.0245246,21.7518892 L19.3371166,21.6675959 C21.9475363,20.9636725 23.7720804,19.4285999 24.5823276,17.2508707 C25.4467658,14.9459965 25.0609736,12.1875577 23.6152261,10.2827759 L23.5704123,10.0769608 C23.8667027,8.75483198 23.7590804,7.05764454 23.2432562,6.34126858 C23.0032419,6.01141978 22.6878582,5.84656537 22.285202,5.84656537 C21.3896457,5.89440231 20.6216633,6.19350256 19.5277628,6.83698448 C19.4205095,6.9000757 19.3085569,6.96714825 19.17219,7.0497803 C19.0955384,7.09622764 18.9929015,7.15870852 18.8114964,7.26911535 L18.6172609,7.29701435 C17.5859025,7.02194063 16.5353082,6.88362899 15.4823761,6.88362899 C14.4477577,6.88362899 13.3801782,7.02979532 12.4019602,7.29664523 L12.2070666,7.26954525 C11.599432,6.90312659 11.4232371,6.79893755 11.1365631,6.6420363 C10.2190164,6.13984835 9.48189155,5.88895256 8.66215514,5.84656537 C8.30669717,5.84656537 7.99332396,6.01613921 7.7574996,6.34022421 C7.24114594,7.05758957 7.13352767,8.75471342 7.42959783,10.0770059 L7.38477393,10.2827759 C5.94016759,12.1860541 5.55269111,14.9613292 6.41790173,17.2514847 C7.2279196,19.4285999 9.05246368,20.9636725 11.6628834,21.6675959 L11.9755542,21.7519104 L11.8148303,22.0330506 C11.5929242,22.4212118 11.447522,22.8893667 11.3878233,23.4744947 L11.3716106,23.6334011 L11.2206028,23.6854662 C10.6027146,23.8985039 10.0961064,23.9460705 9.62514284,23.8076535 C9.10138755,23.6528245 8.69474543,23.3047664 8.35349039,22.7308145 C7.69721986,21.62828 6.72207285,20.9061825 5.70893912,20.8413438 L5.599,20.8379404 L5.711,22.1059404 L5.72724057,22.1073052 C6.26336364,22.1865798 6.7904197,22.6323998 7.17786102,23.2227379 L7.27173716,23.3732047 C7.77568876,24.2218972 8.44597409,24.770756 9.26884637,25.0138146 C9.85676951,25.1870219 10.4108564,25.1972837 11.0532871,25.0601712 L11.3554688,24.9956773 L11.3552871,29.3652013 C5.22940186,27.5745859 0.75,21.9204819 0.75,15.2645341 C0.75,7.14710906 7.40532002,0.455940373 15.5,0.455940373 Z" id="github-solid" fill="#000000" fill-rule="nonzero"></path>
    </g>
</svg>