<?xml version="1.0" encoding="UTF-8"?>
<svg viewBox="0 0 31 30" version="1.1" xmlns="http://www.w3.org/2000/svg" xmlns:xlink="http://www.w3.org/1999/xlink">
    <title>github-outline</title>
    <g id="SAM" stroke="none" stroke-width="1" fill="none" fill-rule="evenodd">
        <path d="M15.5,0.455940373 C23.59468,0.455940373 30.25,7.14710906 30.25,15.2645341 C30.25,23.3522885 23.6377715,29.9559404 15.5,29.9559404 C7.35900316,29.9559404 0.75,23.3493079 0.75,15.2645341 C0.75,7.14710906 7.40532002,0.455940373 15.5,0.455940373 Z M22.2588048,7.11366208 L22.0572367,7.14179711 C21.3890202,7.23506731 20.7889818,7.52136631 19.8045581,8.12986766 C19.8282272,8.11523709 19.3895958,8.38780798 19.2723521,8.45924636 C19.0326304,8.59908775 18.8809707,8.61834051 18.6519149,8.58377889 C18.5128129,8.56279015 18.5062558,8.56196182 18.4474121,8.56333918 C17.52441,8.28784726 16.4992716,8.14144149 15.5176239,8.14144149 C14.6623385,8.14144149 13.935261,8.2327382 13.1513583,8.40413005 C12.9801107,8.4415715 12.402425,8.57932363 12.2849977,8.60376324 C12.31883,8.59557173 12.2879073,8.5946152 12.2202751,8.59403669 C12.0190001,8.59231503 11.9191426,8.57081553 11.7238031,8.45681687 C11.6065296,8.38599075 11.1624884,8.1111075 11.0825863,8.06235488 C10.379829,7.63356456 9.8866668,7.38392376 9.37564659,7.23622331 C9.22847156,7.19368523 9.08465389,7.1620758 8.94357549,7.14191184 L8.74142481,7.11301898 L8.67276022,7.30533348 C8.45750438,7.90821801 8.46364233,9.25505687 8.72341092,10.0510347 C8.81777323,10.3225812 8.7403682,10.6174689 8.55917021,10.83169 C7.24030766,12.3883293 6.84626773,14.8374221 7.58409784,16.8109736 L7.66766864,17.0154958 C8.4808279,18.9055868 10.2258937,20.2650286 13.1786187,20.6974426 L14.144,20.8479404 L14.0759567,20.9523732 C13.8818479,21.2462403 13.6719319,21.5642355 13.6252202,21.634257 C13.4760988,21.8577921 13.4036794,21.9597608 13.3339396,22.0445945 C13.3172113,22.0647651 13.3172113,22.0647651 13.300054,22.0847738 C13.2952355,22.0903385 13.2952355,22.0903385 13.2903454,22.09594 C13.1881001,22.2326132 13.1544062,22.2786963 13.1096763,22.3425929 C12.7568916,22.8465448 12.6132812,23.2904575 12.6132812,24.0712205 L12.6132812,28.3877359 L12.8122874,28.4292 C13.6669772,28.6072797 14.5800133,28.6981279 15.5,28.6981279 C16.4199867,28.6981279 17.3330228,28.6072797 18.1877126,28.4292 L18.3867187,28.3877359 L18.3867187,24.0712205 C18.3867187,23.2905329 18.2431569,22.8466762 17.8904919,22.3426414 L17.8379317,22.2686854 C17.8100278,22.2300623 17.7764547,22.1844913 17.7226626,22.1118106 L17.6981635,22.0825083 L17.6907526,22.0738543 C17.6768584,22.0575151 17.6768584,22.0575151 17.6632914,22.0411086 C17.5973582,21.9607845 17.5286855,21.8640708 17.3827123,21.6454596 L17.3514303,21.5984122 C17.2705504,21.4765124 17.0864195,21.1978661 16.9186076,20.9439812 L16.855,20.8479404 L17.8236727,20.6970961 C20.8795607,20.2495853 22.6422793,18.8073014 23.41484,16.8137638 C24.1536967,14.8375171 23.759751,12.3886485 22.4409532,10.8315653 C22.2596586,10.6174834 22.1822733,10.3226709 22.2752476,10.055691 C22.5363981,9.25494398 22.5424563,7.90810789 22.3272398,7.30533348 L22.2588048,7.11366208 Z M15.5,1.71375287 C8.09532214,1.71375287 2.0078125,7.83840403 2.0078125,15.2645341 C2.0078125,20.9798753 5.68872219,26.0409168 11.0227697,27.9106617 L11.3554687,28.0272828 L11.3554687,24.9956773 L11.0532871,25.0601712 C10.4108564,25.1972837 9.85676951,25.1870219 9.26884637,25.0138146 C8.44597409,24.770756 7.77568876,24.2218972 7.27173716,23.3732047 L7.17786102,23.2227379 C6.7904197,22.6323998 6.26336364,22.1865798 5.72724057,22.1073052 L5.711,22.1059404 L5.599,20.8379404 L5.70893912,20.8413438 C6.72207285,20.9061825 7.69721986,21.62828 8.35349039,22.7308145 C8.69474543,23.3047664 9.10138755,23.6528245 9.62514284,23.8076535 C10.0961064,23.9460705 10.6027146,23.8985039 11.2206028,23.6854662 L11.3716106,23.6334011 L11.3878233,23.4744947 C11.447522,22.8893667 11.5929242,22.4212118 11.8148303,22.0330506 L11.9755542,21.7519104 L11.6628834,21.6675959 C9.05246368,20.9636725 7.2279196,19.4285999 6.41790173,17.2514847 C5.55269111,14.9613292 5.94016759,12.1860541 7.38477393,10.2827759 L7.42959783,10.0770059 C7.13352767,8.75471342 7.24114594,7.05758957 7.7574996,6.34022421 C7.99332396,6.01613921 8.30669717,5.84656537 8.66215514,5.84656537 C9.48189155,5.88895256 10.2190164,6.13984835 11.1365631,6.6420363 C11.4232371,6.79893755 11.599432,6.90312659 12.2070666,7.26954525 L12.4019602,7.29664523 C13.3801782,7.02979532 14.4477577,6.88362899 15.4823761,6.88362899 C16.5353082,6.88362899 17.5859025,7.02194063 18.6172609,7.29701435 L18.8114964,7.26911535 C18.9929015,7.15870852 19.0955384,7.09622764 19.17219,7.0497803 C19.3085569,6.96714825 19.4205095,6.9000757 19.5277628,6.83698448 C20.6216633,6.19350256 21.3896457,5.89440231 22.285202,5.84656537 C22.6878582,5.84656537 23.0032419,6.01141978 23.2432562,6.34126858 C23.7590804,7.05764454 23.8667027,8.75483198 23.5704123,10.0769608 L23.6152261,10.2827759 C25.0609736,12.1875577 25.4467658,14.9459965 24.5823276,17.2508707 C23.7720804,19.4285999 21.9475363,20.9636725 19.3371166,21.6675959 L19.0245246,21.7518892 L19.1851394,22.0329977 C19.4839938,22.5560535 19.6445313,23.202017 19.6445313,24.0712205 L19.6445313,28.0272828 L19.9772303,27.9106617 C25.3112778,26.0409168 28.9921875,20.9798753 28.9921875,15.2645341 C28.9921875,7.83840403 22.9046779,1.71375287 15.5,1.71375287 Z" id="github-outline" fill="#000000" fill-rule="nonzero"></path>
    </g>
</svg>