<?xml version="1.0" encoding="UTF-8"?>
<svg viewBox="0 0 392 480" version="1.1" xmlns="http://www.w3.org/2000/svg" xmlns:xlink="http://www.w3.org/1999/xlink">
    <title>Combined Shape</title>
    <g id="Page-1" stroke="none" stroke-width="1" fill="none" fill-rule="evenodd">
        <path d="M264,0 C277.016,0 288.488,6.344 295.792,16 L305.536,16 C317.112,16 327.992,21.104 335.408,29.992 L358.992,58.296 C364.8,65.264 368,74.096 368,83.176 L368,155.344 C382.12,161.52 392,175.632 392,192 L392,248 C392,270.056 374.056,288 352,288 L344,288 L344,392 C344,394.256 343.048,396.408 341.384,397.92 L253.384,477.92 C251.904,479.256 249.992,480 248,480 L144,480 C142.008,480 140.096,479.256 138.616,477.92 L50.616,397.92 C48.952,396.408 48,394.256 48,392 L48,288 L40,288 C17.944,288 0,270.056 0,248 L0,192 C0,175.632 9.88,161.52 24,155.344 L24,104 C24,69.992 47.184,41.096 80.384,33.704 L84.784,32.728 L59.344,14.496 C56.52,12.472 55.32,8.856 56.384,5.552 C57.448,2.24 60.52,0 64,0 Z M256,104 L136,104 C96.296,104 64,136.296 64,176 L64,388.464 L147.096,464 L244.904,464 L328,388.464 L328,176 C328,136.296 295.704,104 256,104 Z M272,336 C276.424,336 280,339.576 280,344 C280,388.112 244.112,424 200,424 C155.888,424 120,388.112 120,344 C120,339.576 123.576,336 128,336 Z M263.496,352 L136.496,352 C140.448,383.52 167.424,408 200,408 C232.576,408 259.552,383.52 263.496,352 Z M144,160 L144,176.408 C157.536,178.368 168,189.936 168,204 L168,208 L152,208 L152,204 C152,197.384 146.616,192 140,192 L132,192 C125.384,192 120,197.384 120,204 C120,210.616 125.384,216 132,216 L140,216 C155.44,216 168,228.56 168,244 C168,258.064 157.536,269.632 144,271.592 L144,288 L128,288 L128,271.592 C114.464,269.632 104,258.064 104,244 L104,240 L120,240 L120,244 C120,250.616 125.384,256 132,256 L140,256 C146.616,256 152,250.616 152,244 C152,237.384 146.616,232 140,232 L132,232 C116.56,232 104,219.44 104,204 C104,189.936 114.464,178.368 128,176.408 L128,160 L144,160 Z M264,160 L264,176.408 C277.536,178.368 288,189.936 288,204 L288,208 L272,208 L272,204 C272,197.384 266.616,192 260,192 L252,192 C245.384,192 240,197.384 240,204 C240,210.616 245.384,216 252,216 L260,216 C275.44,216 288,228.56 288,244 C288,258.064 277.536,269.632 264,271.592 L264,288 L248,288 L248,271.592 C234.464,269.632 224,258.064 224,244 L224,240 L240,240 L240,244 C240,250.616 245.384,256 252,256 L260,256 C266.616,256 272,250.616 272,244 C272,237.384 266.616,232 260,232 L252,232 C236.56,232 224,219.44 224,204 C224,189.936 234.464,178.368 248,176.408 L248,160 L264,160 Z M48.408,168 L40,168 C26.768,168 16,178.768 16,192 L16,248 C16,261.232 26.768,272 40,272 L48,272 L48,176 C48,173.296 48.168,170.64 48.408,168 Z M352,168 L343.592,168 C343.832,170.64 344,173.296 344,176 L344,272 L352,272 C365.232,272 376,261.232 376,248 L376,192 C376,178.768 365.232,168 352,168 Z M264,16 L88.896,16 L108.656,30.168 C111.224,32 112.464,35.184 111.832,38.272 C111.2,41.36 108.808,43.792 105.728,44.48 L83.848,49.336 C58.032,55.072 40,77.552 40,104 L40,152 L51.408,152 C61.896,115.12 95.808,88 136,88 L256,88 C296.2,88 330.112,115.12 340.592,152 L352,152 L352,83.168 C352,77.832 350.12,72.64 346.696,68.536 L323.104,40.232 C318.744,35 312.344,32 305.536,32 L303.192,32 C303.72,34.584 304,37.264 304,40 L304,48 L288,48 L288,40 C288,26.768 277.232,16 264,16 Z" id="Combined-Shape" fill="#000000" fill-rule="nonzero"></path>
    </g>
</svg>