<?xml version="1.0" encoding="UTF-8"?>
<svg viewBox="0 0 23 22" version="1.1" xmlns="http://www.w3.org/2000/svg" xmlns:xlink="http://www.w3.org/1999/xlink">
    <title>Combined Shape</title>
    <g id="SAM" stroke="none" stroke-width="1" fill="none" fill-rule="evenodd">
        <g id="sam.argonprotocol.org" transform="translate(-1901, -30)" fill="#000000" fill-rule="nonzero">
            <path d="M1918.35887,31.9345333 C1918.55427,32.0691797 1918.60351,32.3367321 1918.46887,32.5321284 C1918.33422,32.7275247 1918.06667,32.7767723 1917.87127,32.6421259 C1913.87371,29.8874277 1908.42958,30.3567901 1904.95632,33.8300468 L1904.85039,33.9375428 C1901.42103,37.4690312 1901.03755,42.9440775 1903.88056,46.9038115 L1903.96415,47.0185414 L1904.1168,47.2075716 C1904.47502,47.648114 1904.75595,47.9699981 1904.95632,48.1703616 L1904.9674,48.1814089 C1905.20242,48.4148311 1905.57773,48.7383216 1906.09,49.1479833 L1906.10719,49.16174 C1910.11073,52.1263113 1915.73386,51.7331041 1919.2966,48.1703646 C1922.76994,44.6970203 1923.23925,39.2527671 1920.48439,35.2551646 C1920.34974,35.0597715 1920.39898,34.7922178 1920.59438,34.6575669 C1920.78977,34.5229159 1921.05732,34.5721572 1921.19197,34.7675503 C1924.18108,39.1050606 1923.67203,45.0101973 1919.90423,48.7779988 C1916.03942,52.6428059 1909.9402,53.0693047 1905.59076,49.848654 C1905.58658,49.8455603 1905.58246,49.8423909 1905.5784,49.8391476 C1905.03116,49.4023133 1904.62659,49.0541223 1904.36122,48.7904917 L1904.34869,48.7780018 C1904.09259,48.5219077 1903.74066,48.1136515 1903.28803,47.5489609 C1903.2846,47.5446789 1903.28125,47.5403316 1903.27799,47.5359212 C1900.05736,43.1864524 1900.48386,37.0871944 1904.34869,33.2224108 C1908.1164,29.4547037 1914.0214,28.9456074 1918.35887,31.9345333 Z M1912.24333,44.5729167 C1912.50028,44.5729167 1912.72076,44.6649306 1912.90479,44.8489583 C1913.08882,45.0329861 1913.18083,45.2534722 1913.18083,45.5104167 C1913.18083,45.6805556 1913.1383,45.8368056 1913.05323,45.9791667 C1912.96816,46.1215278 1912.85531,46.2352431 1912.71468,46.3203125 C1912.57406,46.4053819 1912.41694,46.4479167 1912.24333,46.4479167 C1911.98639,46.4479167 1911.7659,46.3559028 1911.58187,46.171875 C1911.39784,45.9878472 1911.30583,45.7673611 1911.30583,45.5104167 C1911.30583,45.2534722 1911.39784,45.0329861 1911.58187,44.8489583 C1911.7659,44.6649306 1911.98639,44.5729167 1912.24333,44.5729167 Z M1912.535,35.5520833 C1913.14611,35.5520833 1913.67823,35.6736111 1914.13135,35.9166667 C1914.58448,36.1597222 1914.93517,36.4930556 1915.18343,36.9166667 C1915.4317,37.3402778 1915.55583,37.8229167 1915.55583,38.3645833 C1915.55583,38.7465278 1915.49767,39.0920139 1915.38135,39.4010417 C1915.26503,39.7100694 1915.09837,39.9861111 1914.88135,40.2291667 C1914.66434,40.4722222 1914.40305,40.6875 1914.0975,40.875 C1913.79194,41.0659722 1913.54715,41.2664931 1913.36312,41.4765625 C1913.17909,41.6866319 1913.04541,41.9357639 1912.96208,42.2239583 C1912.87875,42.5121528 1912.83361,42.8715278 1912.82666,43.3020833 L1912.82666,43.3645833 L1911.57666,43.3645833 L1911.57666,43.3020833 C1911.58361,42.6388889 1911.65305,42.1111111 1911.785,41.71875 C1911.91694,41.3263889 1912.10444,41.0086806 1912.3475,40.765625 C1912.59055,40.5225694 1912.88222,40.2986111 1913.2225,40.09375 C1913.42736,39.96875 1913.61139,39.8203125 1913.77458,39.6484375 C1913.93778,39.4765625 1914.06712,39.2777778 1914.1626,39.0520833 C1914.25809,38.8263889 1914.30583,38.5763889 1914.30583,38.3020833 C1914.30583,37.9618056 1914.22597,37.6666667 1914.06625,37.4166667 C1913.90653,37.1666667 1913.69298,36.9739583 1913.42562,36.8385417 C1913.15826,36.703125 1912.86139,36.6354167 1912.535,36.6354167 C1912.25028,36.6354167 1911.97597,36.6944444 1911.71208,36.8125 C1911.44819,36.9305556 1911.22771,37.1163194 1911.05062,37.3697917 C1910.87354,37.6232639 1910.77111,37.9548611 1910.74333,38.3645833 L1909.43083,38.3645833 C1909.45861,37.7743056 1909.61225,37.2690972 1909.89177,36.8489583 C1910.17128,36.4288194 1910.54107,36.1076389 1911.00114,35.8854167 C1911.46121,35.6631944 1911.9725,35.5520833 1912.535,35.5520833 Z M1919.64835,33.2393135 C1919.88416,33.2393135 1920.07532,33.4304776 1920.07532,33.6662904 C1920.07532,33.9021033 1919.88416,34.0932674 1919.64835,34.0932674 C1919.41253,34.0932674 1919.22137,33.9021033 1919.22137,33.6662904 C1919.22137,33.4304776 1919.41253,33.2393135 1919.64835,33.2393135 Z" id="Combined-Shape"></path>
        </g>
    </g>
</svg>