<?xml version="1.0" encoding="UTF-8"?>
<svg viewBox="0 0 31 30" version="1.1" xmlns="http://www.w3.org/2000/svg" xmlns:xlink="http://www.w3.org/1999/xlink">
    <title>Combined Shape</title>
    <g id="SAM" stroke="none" stroke-width="1" fill="none" fill-rule="evenodd">
        <path d="M15.5,0.530940373 C23.6045748,0.530940373 30.175,7.10106891 30.175,15.2059404 C30.175,23.3108118 23.6045748,29.8809404 15.5,29.8809404 C7.39576705,29.8809404 0.825,23.3101733 0.825,15.2059404 C0.825,7.10136554 7.39512854,0.530940373 15.5,0.530940373 Z M15.5,1.75594037 C8.07173295,1.75594037 2.05,7.77767332 2.05,15.2059404 C2.05,22.6342074 8.07173295,28.6559404 15.5,28.6559404 C22.9282671,28.6559404 28.95,22.6342074 28.95,15.2059404 C28.95,7.77767332 22.9282671,1.75594037 15.5,1.75594037 Z M16.831628,12.052916 L16.831628,20.7084983 C16.831628,21.0762566 17.129944,21.3743123 17.4974421,21.3743123 L18.1632561,21.3743123 L18.1632561,22.7059404 L12.8367439,22.7059404 L12.8367439,21.3743123 L13.5025579,21.3743123 C13.8703162,21.3743123 14.168372,21.0762566 14.168372,20.7084983 L14.168372,14.0503581 C14.168372,13.6825998 13.8703162,13.384544 13.5025579,13.384544 L12.8367439,13.384544 L12.8367439,12.052916 L16.831628,12.052916 Z M15.2629737,6.98165477 C16.2160521,6.98165477 16.9915466,7.75714927 16.9915466,8.71022767 C16.9915466,9.66330606 16.2160521,10.4388006 15.2629737,10.4388006 C14.3098953,10.4388006 13.5344008,9.66330606 13.5344008,8.71022767 C13.5344008,7.75714927 14.3098953,6.98165477 15.2629737,6.98165477 Z" id="Combined-Shape" fill="#000000" fill-rule="nonzero"></path>
    </g>
</svg>