<?xml version="1.0" encoding="UTF-8"?>
<svg viewBox="0 0 42 43" version="1.1" xmlns="http://www.w3.org/2000/svg" xmlns:xlink="http://www.w3.org/1999/xlink">
    <title>Group 6</title>
    <g id="SAM" stroke="none" stroke-width="1" fill="none" fill-rule="evenodd">
        <g transform="translate(-1298, -185)" id="Group-6">
            <g transform="translate(1298.5053, 185.5594)">
                <rect id="Rectangle" fill="#E6EAF3" x="9.52368547" y="12.9090909" width="22.1344091" height="22.0762341"></rect>
                <path d="M0.87873292,41.120892 C1.44158576,41.6837738 2.20499544,42 3.00101008,42 C3.79702471,42 4.56043439,41.6837738 5.12328723,41.120892 C8.83924184,37.4049374 14.3270747,28.0675932 8.49972251,19.3260022 C3.72694366,12.166834 8.29488544,4.96339686 8.5072257,4.63663295 C9.40409652,3.25610337 9.02147741,1.41077689 7.64965062,0.500650284 C6.27782383,-0.409476324 4.42889753,-0.0446493308 3.50559957,1.31834739 C3.21485098,1.7542827 -3.52601449,12.1083091 3.50559957,22.6559177 C8.04878082,29.4706896 1.1668554,36.5844636 0.879483239,36.8763377 C0.316501884,37.439091 0.000140760172,38.2024448 0,38.9984594 C-0.000140666251,39.7944741 0.315950559,40.5579397 0.87873292,41.120892 Z" id="Path" fill="#E6EAF3" fill-rule="nonzero"></path>
                <path d="M31.013142,41.120892 C31.5759948,41.6837738 32.3394045,42 33.1354192,42 C33.9314338,42 34.6948435,41.6837738 35.2576963,41.120892 C38.9736509,37.4049374 44.4614837,28.0675932 38.6341316,19.3260022 C33.8613527,12.166834 38.4292945,4.96339686 38.6416348,4.63663295 C39.5385056,3.25610337 39.1558865,1.41077689 37.7840597,0.500650284 C36.4122329,-0.409476324 34.5633066,-0.0446493308 33.6400087,1.31834739 C33.3492601,1.7542827 26.6083946,12.1083091 33.6400087,22.6559177 C38.1831899,29.4706896 31.3012645,36.5844636 31.0138923,36.8763377 C30.450911,37.439091 30.1345498,38.2024448 30.1344091,38.9984594 C30.1342684,39.7944741 30.4503596,40.5579397 31.013142,41.120892 L31.013142,41.120892 Z" id="Path" fill="#E6EAF3" fill-rule="nonzero"></path>
                <path d="M4.87873292,41.120892 C5.44158576,41.6837738 6.20499544,42 7.00101008,42 C7.79702471,42 8.56043439,41.6837738 9.12328723,41.120892 C12.8392418,37.4049374 18.3270747,28.0675932 12.4997225,19.3260022 C7.72694366,12.166834 12.2948854,4.96339686 12.5072257,4.63663295 C13.4040965,3.25610337 13.0214774,1.41077689 11.6496506,0.500650284 C10.2778238,-0.409476324 8.42889753,-0.0446493308 7.50559957,1.31834739 C7.21485098,1.7542827 0.473985513,12.1083091 7.50559957,22.6559177 C12.0487808,29.4706896 5.1668554,36.5844636 4.87948324,36.8763377 C4.31650188,37.439091 4.00014076,38.2024448 4,38.9984594 C3.99985933,39.7944741 4.31595056,40.5579397 4.87873292,41.120892 Z" id="Path" fill="#000000" fill-rule="nonzero"></path>
                <path d="M27.013142,41.120892 C27.5759948,41.6837738 28.3394045,42 29.1354192,42 C29.9314338,42 30.6948435,41.6837738 31.2576963,41.120892 C34.9736509,37.4049374 40.4614837,28.0675932 34.6341316,19.3260022 C29.8613527,12.166834 34.4292945,4.96339686 34.6416348,4.63663295 C35.5385056,3.25610337 35.1558865,1.41077689 33.7840597,0.500650284 C32.4122329,-0.409476324 30.5633066,-0.0446493308 29.6400087,1.31834739 C29.3492601,1.7542827 22.6083946,12.1083091 29.6400087,22.6559177 C34.1831899,29.4706896 27.3012645,36.5844636 27.0138923,36.8763377 C26.450911,37.439091 26.1345498,38.2024448 26.1344091,38.9984594 C26.1342684,39.7944741 26.4503596,40.5579397 27.013142,41.120892 L27.013142,41.120892 Z" id="Path" fill="#000000" fill-rule="nonzero"></path>
            </g>
        </g>
    </g>
</svg>