<?xml version="1.0" encoding="UTF-8"?>
<svg viewBox="0 0 36 35" version="1.1" xmlns="http://www.w3.org/2000/svg" xmlns:xlink="http://www.w3.org/1999/xlink">
    <g id="Logos" stroke="none" stroke-width="1" fill="none" fill-rule="evenodd">
        <g id="Artboard" transform="translate(-335, -25)" fill="#000000" fill-rule="nonzero">
            <path d="M352.80279,25 C357.477204,25 361.871823,26.8203418 365.177204,30.1255859 C368.482448,33.4309668 370.30279,37.8255859 370.30279,42.5 C370.30279,47.1744141 368.482448,51.5690332 365.177204,54.8744141 C361.871823,58.1796582 357.477204,60 352.80279,60 C348.128376,60 343.733757,58.1796582 340.428376,54.8744141 C337.123132,51.5690332 335.30279,47.1744141 335.30279,42.5 C335.30279,39.3452832 336.151608,36.2527734 337.757575,33.5568164 C339.316716,30.9391992 341.541677,28.7624316 344.191901,27.2616699 C344.438405,27.1222852 344.751218,27.2088281 344.890671,27.4551953 C345.030192,27.7015625 344.943513,28.0144434 344.697145,28.1539648 C342.201686,29.5670215 340.106608,31.6167773 338.638454,34.081543 C337.127096,36.6188379 336.32818,39.5299219 336.32818,42.5 C336.32818,46.9005664 338.041813,51.0376758 341.153464,54.1493262 C344.265114,57.2609766 348.402223,58.9746094 352.80279,58.9746094 C357.203356,58.9746094 361.340466,57.2609766 364.452116,54.1493262 C367.563766,51.0376758 369.277399,46.9005664 369.277399,42.5 C369.277399,38.0994336 367.563766,33.9623242 364.452116,30.8506738 C361.340466,27.7390234 357.203356,26.0253906 352.80279,26.0253906 C350.64154,26.0253906 348.54072,26.4373242 346.558776,27.2497754 C346.296755,27.3570996 345.997341,27.2317969 345.889948,26.9697754 C345.782487,26.7077539 345.907858,26.4083398 346.16988,26.3009473 C348.275827,25.4377051 350.507487,25 352.80279,25 Z M352.80279,27.1953613 C356.890817,27.1953613 360.734118,28.7873145 363.624831,31.677959 C366.515475,34.5686719 368.107429,38.4119727 368.107429,42.5 C368.107429,46.5880273 366.515475,50.4313281 363.624831,53.322041 C360.734118,56.2126855 356.890817,57.8046387 352.80279,57.8046387 C351.024968,57.8046387 349.282829,57.5024219 347.624704,56.9063281 C347.358239,56.8105566 347.21988,56.5168848 347.315651,56.2504883 C347.411423,55.9839551 347.705095,55.8456641 347.971559,55.9414355 C349.518122,56.497334 351.143571,56.779248 352.80279,56.779248 C360.676354,56.779248 367.082038,50.3735645 367.082038,42.5 C367.082038,34.6264355 360.676354,28.220752 352.80279,28.220752 C344.929225,28.220752 338.523542,34.6264355 338.523542,42.5 C338.523542,47.7407715 341.387116,52.5519727 345.996794,55.0561133 C346.245554,55.1912598 346.337702,55.5025 346.202555,55.7513281 C346.067409,56.0000879 345.756169,56.0922363 345.507341,55.9570898 C340.567077,53.2734375 337.498151,48.1169531 337.498151,42.5 C337.498151,38.4119727 339.090104,34.5686719 341.980749,31.677959 C344.871462,28.7873145 348.714763,27.1953613 352.80279,27.1953613 Z M352.261733,33.1268985 L352.451281,33.399756 L356.281459,38.9147325 L359.15249,38.1461223 L359.764088,40.4286398 L357.714085,40.977219 L358.396457,41.9590638 L360.055103,41.5147223 L360.666702,43.7972399 L359.829083,44.0215504 L362.358017,47.6606318 L362.741575,48.2127688 L359.23933,49.1511926 L359.050733,48.8722583 L356.393285,44.9421697 L351.198536,46.3340986 L350.863596,51.0659987 L350.839731,51.4018584 L347.337488,52.3402814 L347.393591,51.6703376 L347.762738,47.2547179 L346.926617,47.4788845 L346.315018,45.196367 L347.972185,44.752239 L348.072214,43.5607507 L346.024003,44.1102845 L345.412404,41.827767 L348.281661,41.0582718 L348.842638,34.366689 L348.870363,34.0356133 L352.261733,33.1268985 Z M354.325618,41.8851562 L351.460682,42.6528135 L351.376108,43.8401607 L354.992534,42.8711422 L354.325618,41.8851562 Z M351.782533,38.1236255 L351.637288,40.1591344 L352.925833,39.8138698 L351.782533,38.1236255 Z" id="Combined-Shape"></path>
        </g>
    </g>
</svg>