<?xml version="1.0" encoding="UTF-8"?>
<svg viewBox="0 0 30 30" version="1.1" xmlns="http://www.w3.org/2000/svg" xmlns:xlink="http://www.w3.org/1999/xlink">
    <title>play-outlined</title>
    <g id="SAM" stroke="none" stroke-width="1" fill="none" fill-rule="evenodd">
        <path d="M15.325,0.530940373 C23.4295748,0.530940373 30,7.10106891 30,15.2059404 C30,23.3108118 23.4295748,29.8809404 15.325,29.8809404 C7.22076705,29.8809404 0.65,23.3101733 0.65,15.2059404 C0.65,7.10136554 7.22012854,0.530940373 15.325,0.530940373 Z M15.325,1.75594037 C7.89673295,1.75594037 1.875,7.77767332 1.875,15.2059404 C1.875,22.6342074 7.89673295,28.6559404 15.325,28.6559404 C22.7532671,28.6559404 28.775,22.6342074 28.775,15.2059404 C28.775,7.77767332 22.7532671,1.75594037 15.325,1.75594037 Z M11.6040208,7.49966188 L23.9020435,14.5998275 C24.118613,14.7247925 24.2519489,14.9557169 24.2519489,15.205872 C24.2519489,15.4560271 24.118613,15.6869516 23.9021897,15.8118322 L11.6038947,22.9116082 C11.4962439,22.9738605 11.3758922,23.0059404 11.2539616,23.0059404 C11.1320312,23.0059404 11.0116793,22.9738605 10.9044762,22.9118668 C10.6875119,22.7866736 10.5541434,22.555768 10.5541434,22.3061221 L10.5541434,8.10562197 C10.5541434,7.8554669 10.6874792,7.62454246 10.9039024,7.49966197 C11.1204668,7.37469987 11.3874565,7.37469987 11.6040208,7.49966188 Z M11.9537799,9.31772502 L11.9537799,21.0940191 L13.0037758,20.4878132 L21.1024899,15.8120921 L22.1525106,15.205872 L21.1024899,14.5996518 L13.0037757,9.92393084 L11.9537799,9.31772502 Z" id="play-outlined" fill="#000000" fill-rule="nonzero"></path>
    </g>
</svg>