<?xml version="1.0" encoding="UTF-8"?>
<svg viewBox="0 0 173 175" version="1.1" xmlns="http://www.w3.org/2000/svg" xmlns:xlink="http://www.w3.org/1999/xlink">
    <title>_160</title>
    <g id="SAM" stroke="none" stroke-width="1" fill="none" fill-rule="evenodd">
        <g id="SAM-Base-Copy-2" transform="translate(-855, -520)" fill="#5B6174" fill-rule="nonzero">
            <path d="M942.037109,520.738281 C961.047864,520.738281 979.557858,526.988685 994.618785,538.473063 L995.661643,539.268271 L1002.84386,532.086051 C1004.18846,530.741451 1005.95536,530.005859 1007.83301,530.005859 C1011.54087,530.005859 1014.57846,532.774897 1014.91339,536.459046 L1018.30695,573.768687 C1018.58132,576.782462 1017.56852,579.793367 1015.52931,582.025353 C1013.48903,584.2628 1010.58602,585.545898 1007.56934,585.545898 C1007.22278,585.545898 1006.89383,585.532014 1006.57721,585.503231 L969.26771,582.109682 C966.490652,581.855017 964.190911,580.082393 963.242418,577.462938 C962.293035,574.841025 962.923585,572.006329 964.894645,570.03527 L970.952597,563.977317 L969.329094,562.983397 C961.146247,557.973799 951.642195,555.287109 942.037109,555.287109 C928.09318,555.287109 914.977621,560.719418 905.117074,570.579965 C895.151932,580.545107 889.718697,593.806576 889.824261,607.901859 C889.934869,621.99438 895.57532,635.174766 905.699905,644.99285 C915.707191,654.698589 928.053895,659.795898 942.032227,659.795898 C956.251,659.795898 969.589452,654.10936 979.57004,643.797091 C986.564156,636.576873 991.29306,627.562237 993.244713,617.733553 C994.247655,612.693127 998.705484,609.029297 1003.83398,609.029297 L1017.00781,609.029297 L1017.34673,609.034581 C1020.39036,609.129545 1023.24542,610.500661 1025.22486,612.831353 L1025.518,613.178 L1025.65793,613.357511 C1027.41319,615.706735 1028.14423,618.673544 1027.66619,621.593597 C1024.71887,639.579931 1016.33017,655.914724 1003.39832,668.846566 C987.010833,685.234058 965.224861,694.256836 942.046875,694.256836 C918.868889,694.256836 897.082917,685.234058 880.695426,668.846566 C864.360037,652.511178 855.312697,630.859215 855.210198,607.864462 C855.111085,584.872488 863.974305,563.14324 880.172046,546.671856 C896.618382,529.947094 918.586469,520.738281 942.037109,520.738281 Z M994.800499,541.009502 C961.092719,514.184389 912.111539,516.871346 881.504697,547.996128 C848.741723,581.310784 848.97127,634.475403 882.016488,667.520621 C915.165751,700.669884 968.908467,700.669884 1002.05773,667.520621 C1014.59439,654.983962 1022.69966,639.173445 1025.66445,622.086781 L1025.79787,621.300728 C1026.68441,615.858204 1022.50906,610.916992 1017.00293,610.916992 L1003.82422,610.916992 C999.567145,610.916992 995.910848,613.928977 995.082364,618.106651 C993.075239,628.215351 988.230577,637.55741 980.915432,645.113918 C960.00615,666.712412 925.94664,667.265464 904.380349,646.345211 C882.677421,625.29247 882.429718,590.600782 903.781363,569.249137 L904.365172,568.673973 C923.154487,550.437271 952.195313,548.383762 973.256959,563.313358 L973.847,563.739 L966.22059,571.366098 C963.099317,574.48737 965.034636,579.831429 969.431233,580.229249 L1006.7401,583.62274 C1012.28238,584.127651 1016.92648,579.483553 1016.42155,573.941059 L1013.02801,536.631704 L1013.00449,536.417508 C1012.45564,532.173713 1007.23503,530.351658 1004.16493,533.421762 L995.783,541.803 Z" id="_160"></path>
        </g>
    </g>
</svg>