<?xml version="1.0" encoding="UTF-8"?>
<svg viewBox="0 0 31 29" version="1.1" xmlns="http://www.w3.org/2000/svg" xmlns:xlink="http://www.w3.org/1999/xlink">
    <title>reset-solid</title>
    <g id="SAM" stroke="none" stroke-width="1" fill="none" fill-rule="evenodd">
        <path d="M15.525,0.205940373 C7.4359656,0.205940373 0.85,6.63700957 0.85,14.5482 C1.65316654,33.5717731 29.4025704,33.5660362 30.2,14.5482 C30.2,6.63700957 23.6140344,0.205940373 15.525,0.205940373 Z M12.8790294,6.35680652 L13.5939062,7.75205319 C13.6744705,7.90929302 13.6123127,8.10207138 13.4550729,8.1826357 C13.2978331,8.26320002 13.1050547,8.20104224 13.0244904,8.04380241 L12.3096123,6.64855308 C12.2292025,6.49161135 12.0367342,6.4295554 11.8797821,6.50997043 C11.7228404,6.59038017 11.6607844,6.7828485 11.7411957,6.93979324 L13.8965759,11.1468344 L14.7215759,12.7558344 L19.98105,23.0211157 C20.0614597,23.1780574 20.2539281,23.2401134 20.4108802,23.1596983 C20.5678219,23.0792886 20.6298778,22.8868203 20.5494646,22.7298716 L19.6616268,20.9970632 C19.5810621,20.8398236 19.6432194,20.6470451 19.800459,20.5664803 C19.9576986,20.4859156 20.1504771,20.5480729 20.2310419,20.7053125 L21.1188813,22.4381243 C21.3604197,22.9095529 21.1740516,23.487579 20.702624,23.7291169 C20.2311954,23.9706552 19.6531693,23.7842871 19.4116352,23.3128669 L15.5245759,15.7268344 L11.6383613,23.3128596 C11.3968235,23.7842871 10.8187973,23.9706552 10.3473687,23.7291169 C9.87594119,23.487579 9.68957308,22.9095529 9.93111499,22.4381174 L14.4475759,13.6238344 L14.3335759,13.4028344 L10.7175759,15.2558344 L9.51457594,15.8728344 L7.88513824,16.7080507 C7.64629198,16.8304687 7.35340291,16.7360295 7.23096191,16.4971385 L4.65917255,11.4778519 C4.53673686,11.2389712 4.63117612,10.9460822 4.87006595,10.8236418 L6.43817587,10.0199215 L8.16303806,9.13612961 L8.16357594,9.13583445 L9.87891395,8.25687064 L11.3185759,7.51883445 L11.1717809,7.23154447 C10.9302426,6.76011586 11.1166107,6.18208972 11.5880382,5.94055191 C12.0594668,5.69901355 12.637493,5.88538166 12.8790294,6.35680652 Z M14.8065759,14.3248344 L10.50053,22.7298682 C10.4201149,22.8868203 10.4821709,23.0792886 10.6391126,23.1596983 C10.7960647,23.2401134 10.988533,23.1780574 11.0689465,23.0211083 L15.1655759,15.0258344 L14.8065759,14.3248344 Z M19.4619119,5.94055191 C19.9333394,6.18208972 20.1197075,6.76011586 19.8781654,7.2315518 L19.7305759,7.51883445 L21.1669709,8.25479403 L22.8864361,9.13580344 L24.6078815,10.0178004 L26.1799612,10.8236594 C26.4188166,10.9460822 26.5132559,11.2389712 26.3908384,11.4778163 L25.5594018,13.1016441 L24.6516458,14.8733608 L23.8189522,16.4972918 C23.6964551,16.736049 23.4036311,16.8304549 23.1647775,16.708033 L20.8715759,15.5328344 L19.8723412,15.0208908 L18.1518989,14.1393828 L16.7155759,13.4038344 L16.6025759,13.6238344 L19.5561299,19.3882894 C19.6366965,19.5455281 19.5745415,19.7383074 19.4173028,19.8188739 C19.2600642,19.8994405 19.0672849,19.8372855 18.9867183,19.6800468 L13.7144168,9.39029993 C13.6338502,9.23306126 13.6960053,9.04028201 13.8532439,8.95971543 C14.0104826,8.87914886 14.2032618,8.94130387 14.2838284,9.09854254 L15.5245759,11.5198344 L18.1709193,6.35680919 C18.4124571,5.88538166 18.9904833,5.69901355 19.4619119,5.94055191 Z M22.7845759,14.2758344 L22.1685759,15.4778344 L23.3197338,16.0685087 L23.9355759,14.8658344 L22.7845759,14.2758344 Z M8.26457594,14.2758344 L7.11357594,14.8658344 L7.73020055,16.0685087 L8.88057594,15.4778344 L8.26457594,14.2758344 Z M21.0648084,13.3950421 L20.4488151,14.5973097 L21.5998352,15.1870458 L22.2158285,13.9847782 L21.0648084,13.3950421 Z M9.98564794,13.3947063 L8.83462791,13.9844424 L9.45062119,15.1867099 L10.6015759,14.5958344 L9.98564794,13.3947063 Z M11.7055759,12.5128344 L10.5545759,13.1028344 L11.1705759,14.3048344 L12.3215759,13.7148344 L11.7055759,12.5128344 Z M19.3435759,12.5128344 L18.7275759,13.7158344 L19.8785759,14.3048344 L20.4945759,13.1028344 L19.3435759,12.5128344 Z M23.6930552,12.5048517 L23.0770619,13.7071193 L24.2265759,14.2968344 L24.8440752,13.0945878 L23.6930552,12.5048517 Z M7.35751157,12.5045805 L6.20649154,13.0943166 L6.65757594,13.9758344 L6.82248482,14.2965842 L7.97350485,13.7068481 L7.35751157,12.5045805 Z M17.6238979,11.6320358 L17.0079046,12.8343034 L18.1589246,13.4240395 L18.7749179,12.2217719 L17.6238979,11.6320358 Z M13.426386,11.6316554 L12.275366,12.2213915 L12.8913593,13.4236591 L14.0423793,12.833923 L13.426386,11.6316554 Z M21.9715759,11.6228344 L21.3565759,12.8248344 L22.5075759,13.4148344 L23.1225759,12.2128344 L21.9715759,11.6228344 Z M9.07757594,11.6228344 L7.92657594,12.2118344 L8.54257594,13.4148344 L9.69357594,12.8248344 L9.07757594,11.6228344 Z M18.7403343,6.64856003 L15.8835759,12.2208344 L16.2425759,12.9218344 L18.4175759,8.67783445 L19.0155531,7.51216289 L19.3087507,6.93980058 C19.3891657,6.7828485 19.3271097,6.59038017 19.170168,6.50997043 C19.0132159,6.4295554 18.8207476,6.49161135 18.7403343,6.64856003 Z M20.2521641,10.7418074 L19.6361708,11.944075 L20.7871908,12.5338111 L21.4031841,11.3315435 L20.2521641,10.7418074 Z M10.7982311,10.7415871 L9.64721111,11.3313232 L10.2632044,12.5335908 L11.4142244,11.9438547 L10.7982311,10.7415871 Z M24.6005759,10.7328344 L23.9845759,11.9348344 L25.1345759,12.5248344 L25.7512958,11.3228956 L24.6005759,10.7328344 Z M6.44957594,10.7328344 L5.29868113,11.3228956 L5.91357594,12.5238344 L7.06457594,11.9348344 L6.44957594,10.7328344 Z M18.5305759,9.85983445 L18.0135759,10.8698344 L17.9145759,11.0618344 L19.0665759,11.6518344 L19.6825759,10.4498344 L18.5305759,9.85983445 Z M12.5175759,9.85983445 L11.3675759,10.4488344 L11.9825759,11.6508344 L13.1335759,11.0618344 L12.5175759,9.85983445 Z M22.8803729,9.85159757 L22.2643796,11.0538652 L23.4153996,11.6436013 L24.0313929,10.4413337 L22.8803729,9.85159757 Z M8.17009477,9.85145706 L7.01907473,10.4411932 L7.63506801,11.6434608 L8.78608805,11.0537246 L8.17009477,9.85145706 Z M21.1595759,8.96983445 L20.5435759,10.1718344 L21.6945759,10.7618344 L22.3105759,9.55983445 L21.1595759,8.96983445 Z M9.88957594,8.96983445 L8.73957594,9.55983445 L9.35457594,10.7608344 L10.5055759,10.1718344 L9.88957594,8.96983445 Z M19.4390534,8.08859004 L18.823469,9.29085884 L19.974489,9.88059494 L20.5904823,8.67832736 L19.4390534,8.08859004 Z M11.610881,8.08859004 L10.4598128,8.67814231 L11.0758061,9.8804099 L12.2268261,9.29067379 L12.2065759,9.24983445 L11.610881,8.08859004 Z" id="reset-solid" fill="#000000" fill-rule="nonzero"></path>
    </g>
</svg>