<?xml version="1.0" encoding="UTF-8"?>
<svg viewBox="0 0 31 30" version="1.1" xmlns="http://www.w3.org/2000/svg" xmlns:xlink="http://www.w3.org/1999/xlink">
    <title>reset-outlined</title>
    <g id="SAM" stroke="none" stroke-width="1" fill="none" fill-rule="evenodd">
        <path d="M15.525,0.205940373 C23.6295748,0.205940373 30.2,6.77606891 30.2,14.8809404 C30.2,22.9858118 23.6295748,29.5559404 15.525,29.5559404 C7.42076705,29.5559404 0.85,22.9851733 0.85,14.8809404 C0.85,6.77636554 7.42012854,0.205940373 15.525,0.205940373 Z M15.525,1.43094037 C8.09673295,1.43094037 2.075,7.45267332 2.075,14.8809404 C2.075,22.3092074 8.09673295,28.3309404 15.525,28.3309404 C22.9532671,28.3309404 28.975,22.3092074 28.975,14.8809404 C28.975,7.45267332 22.9532671,1.43094037 15.525,1.43094037 Z M12.8790294,6.72791245 L13.5939062,8.12315912 C13.6744705,8.28039895 13.6123127,8.4731773 13.4550729,8.55374162 C13.2978331,8.63430595 13.1050547,8.57214817 13.0244904,8.41490834 L12.3096123,7.01965901 C12.2292025,6.86271727 12.0367342,6.80066133 11.8797821,6.88107636 C11.7228404,6.96148609 11.6607844,7.15395443 11.7411957,7.31089917 L13.8965759,11.5179404 L14.7215759,13.1269404 L19.98105,23.3922216 C20.0614597,23.5491634 20.2539281,23.6112193 20.4108802,23.5308043 C20.5678219,23.4503945 20.6298778,23.2579262 20.5494646,23.1009775 L19.6616268,21.3681691 C19.5810621,21.2109295 19.6432194,21.018151 19.800459,20.9375863 C19.9576986,20.8570215 20.1504771,20.9191788 20.2310419,21.0764184 L21.1188813,22.8092302 C21.3604197,23.2806588 21.1740516,23.858685 20.702624,24.1002228 C20.2311954,24.3417611 19.6531693,24.155393 19.4116352,23.6839728 L15.5245759,16.0979404 L11.6383613,23.6839655 C11.3968235,24.155393 10.8187973,24.3417611 10.3473687,24.1002228 C9.87594119,23.858685 9.68957308,23.2806588 9.93111499,22.8092233 L14.4475759,13.9949404 L14.3335759,13.7739404 L10.7175759,15.6269404 L9.51457594,16.2439404 L7.88513824,17.0791566 C7.64629198,17.2015747 7.35340291,17.1071354 7.23096191,16.8682444 L4.65917255,11.8489578 C4.53673686,11.6100772 4.63117612,11.3171881 4.87006595,11.1947477 L6.43817587,10.3910274 L8.16357594,9.50694037 L9.87891395,8.62797656 L11.3185759,7.88994037 L11.1717809,7.6026504 C10.9302426,7.13122179 11.1166107,6.55319565 11.5880382,6.31165784 C12.0594668,6.07011948 12.637493,6.25648758 12.8790294,6.72791245 Z M14.8065759,14.6959404 L10.50053,23.1009741 C10.4201149,23.2579262 10.4821709,23.4503945 10.6391126,23.5308043 C10.7960647,23.6112193 10.988533,23.5491634 11.0689465,23.3922142 L15.1655759,15.3969404 L14.8065759,14.6959404 Z M19.4619119,6.31165784 C19.9333394,6.55319565 20.1197075,7.13122179 19.8781654,7.60265772 L19.7305759,7.88994037 L21.1669709,8.62589996 L22.8864361,9.50690937 L24.6078815,10.3889063 L26.1799612,11.1947653 C26.4188166,11.3171881 26.5132559,11.6100772 26.3908384,11.8489222 L25.5594018,13.47275 L24.6516458,15.2444667 L23.8189522,16.8683977 C23.6964551,17.1071549 23.4036311,17.2015608 23.1647775,17.079139 L20.8715759,15.9039404 L19.8723412,15.3919967 L18.1518989,14.5104887 L16.7155759,13.7749404 L16.6025759,13.9949404 L19.5561299,19.7593954 C19.6366965,19.916634 19.5745415,20.1094133 19.4173028,20.1899799 C19.2600642,20.2705464 19.0672849,20.2083914 18.9867183,20.0511528 L13.7144168,9.76140586 C13.6338502,9.60416718 13.6960053,9.41138794 13.8532439,9.33082136 C14.0104826,9.25025478 14.2032618,9.3124098 14.2838284,9.46964847 L15.5245759,11.8909404 L18.1709193,6.72791511 C18.4124571,6.25648758 18.9904833,6.07011948 19.4619119,6.31165784 Z M22.7845759,14.6469404 L22.1685759,15.8489404 L23.3197338,16.4396146 L23.9355759,15.2369404 L22.7845759,14.6469404 Z M8.26457594,14.6469404 L7.11357594,15.2369404 L7.73020055,16.4396146 L8.88057594,15.8489404 L8.26457594,14.6469404 Z M21.0648084,13.766148 L20.4488151,14.9684156 L21.5998352,15.5581517 L22.2158285,14.3558842 L21.0648084,13.766148 Z M9.98564794,13.7658122 L8.83462791,14.3555483 L9.45062119,15.5578159 L10.6015759,14.9669404 L9.98564794,13.7658122 Z M19.3435759,12.8839404 L18.7275759,14.0869404 L19.8785759,14.6759404 L20.4945759,13.4739404 L19.3435759,12.8839404 Z M11.7055759,12.8839404 L10.5545759,13.4739404 L11.1705759,14.6759404 L12.3215759,14.0859404 L11.7055759,12.8839404 Z M23.6930552,12.8759576 L23.0770619,14.0782252 L24.2265759,14.6679404 L24.8440752,13.4656937 L23.6930552,12.8759576 Z M7.35751157,12.8756864 L6.20649154,13.4654225 L6.65757594,14.3469404 L6.82248482,14.6676901 L7.97350485,14.077954 L7.35751157,12.8756864 Z M17.6238979,12.0031417 L17.0079046,13.2054093 L18.1589246,13.7951454 L18.7749179,12.5928778 L17.6238979,12.0031417 Z M13.426386,12.0027613 L12.275366,12.5924974 L12.8913593,13.794765 L14.0423793,13.2050289 L13.426386,12.0027613 Z M21.9715759,11.9939404 L21.3565759,13.1959404 L22.5075759,13.7859404 L23.1225759,12.5839404 L21.9715759,11.9939404 Z M9.07757594,11.9939404 L7.92657594,12.5829404 L8.54257594,13.7859404 L9.69357594,13.1959404 L9.07757594,11.9939404 Z M18.7403343,7.01966595 L15.8835759,12.5919404 L16.2425759,13.2929404 L18.4175759,9.04894037 L19.0155531,7.88326882 L19.3087507,7.31090651 C19.3891657,7.15395443 19.3271097,6.96148609 19.170168,6.88107636 C19.0132159,6.80066133 18.8207476,6.86271727 18.7403343,7.01966595 Z M20.2521641,11.1129134 L19.6361708,12.3151809 L20.7871908,12.904917 L21.4031841,11.7026495 L20.2521641,11.1129134 Z M10.7982311,11.112693 L9.64721111,11.7024291 L10.2632044,12.9046967 L11.4142244,12.3149606 L10.7982311,11.112693 Z M24.6005759,11.1039404 L23.9845759,12.3059404 L25.1345759,12.8959404 L25.7512958,11.6940015 L24.6005759,11.1039404 Z M6.44957594,11.1039404 L5.29868113,11.6940015 L5.91357594,12.8949404 L7.06457594,12.3059404 L6.44957594,11.1039404 Z M18.5305759,10.2309404 L18.0135759,11.2409404 L17.9145759,11.4329404 L19.0665759,12.0229404 L19.6825759,10.8209404 L18.5305759,10.2309404 Z M12.5175759,10.2309404 L11.3675759,10.8199404 L11.9825759,12.0219404 L13.1335759,11.4329404 L12.5175759,10.2309404 Z M22.8803729,10.2227035 L22.2643796,11.4249711 L23.4153996,12.0147072 L24.0313929,10.8124396 L22.8803729,10.2227035 Z M8.17009477,10.222563 L7.01907473,10.8122991 L7.63506801,12.0145667 L8.78608805,11.4248306 L8.17009477,10.222563 Z M21.1595759,9.34094037 L20.5435759,10.5429404 L21.6945759,11.1329404 L22.3105759,9.93094037 L21.1595759,9.34094037 Z M9.88957594,9.34094037 L8.73957594,9.93094037 L9.35457594,11.1319404 L10.5055759,10.5429404 L9.88957594,9.34094037 Z M11.610881,8.45969597 L10.4598128,9.04924824 L11.0758061,10.2515158 L12.2268261,9.66177972 L12.2065759,9.62094037 L11.610881,8.45969597 Z M19.4390534,8.45969597 L18.823469,9.66196476 L19.974489,10.2517009 L20.5904823,9.04943328 L19.4390534,8.45969597 Z" id="reset-outlined" fill="#000000" fill-rule="nonzero"></path>
    </g>
</svg>