<?xml version="1.0" encoding="UTF-8"?>
<svg viewBox="0 0 30 31" version="1.1" xmlns="http://www.w3.org/2000/svg" xmlns:xlink="http://www.w3.org/1999/xlink">
    <title>settings-outline</title>
    <g id="SAM" stroke="none" stroke-width="1" fill="none" fill-rule="evenodd">
        <path d="M16.4,0.205940373 C17.34625,0.205940373 18.145,0.914690373 18.2575,1.85594037 L18.55625,4.20094037 C19.15375,4.39469037 19.72875,4.63344037 20.275,4.91219037 L22.1425,3.46094037 C22.90125,2.87469037 23.96625,2.94219037 24.62375,3.61969037 L26.5925,5.58844037 C27.26375,6.23969037 27.33125,7.30594037 26.745,8.06219037 L25.29375,9.93094037 C25.57375,10.4771904 25.8125,11.0521904 26.005,11.6484404 L28.355,11.9471904 C29.29125,12.0609404 30,12.8596904 30,13.8059404 L30,16.6059404 C30,17.5521904 29.29125,18.3509404 28.35,18.4634404 L26.005,18.7621904 C25.81125,19.3584404 25.5725,19.9334404 25.29375,20.4796904 L26.745,22.3471904 C27.3325,23.1046904 27.26375,24.1709404 26.58625,24.8284404 L24.6175,26.7971904 C23.96625,27.4684404 22.89875,27.5371904 22.14375,26.9496904 L20.275,25.4984404 C19.72875,25.7784404 19.15375,26.0171904 18.5575,26.2096904 L18.25875,28.5596904 C18.145,29.4971904 17.34625,30.2059404 16.4,30.2059404 L13.6,30.2059404 C12.65375,30.2059404 11.855,29.4971904 11.7425,28.5559404 L11.44375,26.2109404 C10.8475,26.0171904 10.2725,25.7784404 9.72625,25.4996904 L7.85875,26.9509404 C7.10125,27.5371904 6.035,27.4696904 5.3775,26.7934404 L3.40875,24.8246904 C2.7375,24.1734404 2.67,23.1071904 3.25625,22.3509404 L4.7075,20.4821904 C4.4275,19.9359404 4.18875,19.3609404 3.99625,18.7646904 L1.64625,18.4659404 C0.70875,18.3509404 0,17.5521904 0,16.6059404 L0,13.8059404 C0,12.8596904 0.70875,12.0609404 1.65,11.9484404 L3.995,11.6496904 C4.18875,11.0534404 4.4275,10.4784404 4.70625,9.93219037 L3.25625,8.06469037 C2.66875,7.30719037 2.7375,6.23969037 3.415,5.58219037 L5.38375,3.61344037 C6.035,2.94219037 7.1025,2.87594037 7.8575,3.46094037 L9.725,4.91344037 C10.27125,4.63469037 10.84625,4.39594037 11.44375,4.20219037 L11.7425,1.85219037 C11.855,0.914690373 12.65375,0.205940373 13.6,0.205940373 L16.4,0.205940373 Z M16.4,1.45594037 L13.6,1.45594037 C13.29125,1.45594037 13.02,1.69719037 12.98375,2.00469037 L12.6325,4.75969037 C12.60125,5.00719037 12.425,5.21219037 12.185,5.28219037 C11.4,5.50719037 10.65375,5.81719037 9.9675,6.20094037 C9.74875,6.32469037 9.4775,6.30219037 9.27875,6.14969037 L7.09125,4.44969037 C6.83875,4.25344037 6.4875,4.27094037 6.27375,4.49094037 L4.2925,6.47344037 C4.06625,6.69344037 4.04875,7.04594037 4.24375,7.29844037 L5.94375,9.48594037 C6.0975,9.68344037 6.11875,9.95469037 5.99625,10.1734404 C5.61,10.8621904 5.30125,11.6084404 5.07625,12.3909404 C5.0075,12.6309404 4.8025,12.8071904 4.555,12.8384404 L1.805,13.1884404 C1.49125,13.2259404 1.25,13.4971904 1.25,13.8059404 L1.25,16.6059404 C1.25,16.9146904 1.49125,17.1859404 1.79875,17.2221904 L4.55375,17.5734404 C4.80125,17.6046904 5.00625,17.7809404 5.075,18.0209404 C5.3,18.8034404 5.61,19.5496904 5.995,20.2384404 C6.1175,20.4571904 6.0975,20.7284404 5.9425,20.9259404 L4.2425,23.1134404 C4.04625,23.3659404 4.06375,23.7184404 4.28375,23.9309404 L6.265,25.9121904 C6.48375,26.1384404 6.835,26.1559404 7.09,25.9609404 L9.2775,24.2609404 C9.39125,24.1759404 9.52625,24.1309404 9.6625,24.1309404 C9.76625,24.1309404 9.8725,24.1571904 9.9675,24.2096904 C10.65625,24.5946904 11.4025,24.9046904 12.185,25.1296904 C12.425,25.1984404 12.60125,25.4034404 12.6325,25.6509404 L12.9825,28.4009404 C13.02,28.7146904 13.29125,28.9559404 13.6,28.9559404 L16.4,28.9559404 C16.70875,28.9559404 16.98,28.7146904 17.01625,28.4071904 L17.3675,25.6521904 C17.39875,25.4046904 17.575,25.1996904 17.815,25.1309404 C18.5975,24.9059404 19.34375,24.5959404 20.0325,24.2109404 C20.25125,24.0884404 20.52375,24.1096904 20.72,24.2634404 L22.9075,25.9634404 C23.15875,26.1584404 23.51125,26.1421904 23.72625,25.9209404 L25.7075,23.9396904 C25.93375,23.7196904 25.95125,23.3671904 25.75625,23.1146904 L24.05625,20.9271904 C23.9025,20.7296904 23.88125,20.4584404 24.00375,20.2396904 C24.38875,19.5509404 24.69875,18.8046904 24.92375,18.0221904 C24.9925,17.7821904 25.1975,17.6059404 25.445,17.5746904 L28.195,17.2246904 C28.50875,17.1859404 28.75,16.9146904 28.75,16.6059404 L28.75,13.8059404 C28.75,13.4971904 28.50875,13.2259404 28.20125,13.1896904 L25.44625,12.8384404 C25.19875,12.8071904 24.99375,12.6309404 24.925,12.3909404 C24.7,11.6084404 24.39,10.8621904 24.005,10.1734404 C23.8825,9.95469037 23.9025,9.68344037 24.0575,9.48594037 L25.7575,7.29844037 C25.95375,7.04594037 25.93625,6.69344037 25.71625,6.48094037 L23.735,4.49969037 C23.51625,4.27219037 23.1625,4.25469037 22.91,4.45094037 L20.7225,6.15094037 C20.52375,6.30469037 20.2525,6.32594037 20.03375,6.20344037 C19.3475,5.81844037 18.60125,5.50969037 17.81625,5.28344037 C17.57625,5.21469037 17.4,5.00969037 17.36875,4.76219037 L17.01875,2.01219037 C16.98,1.69719037 16.70875,1.45594037 16.4,1.45594037 Z M15,8.95594037 C18.44625,8.95594037 21.25,11.7596904 21.25,15.2059404 C21.25,18.6521904 18.44625,21.4559404 15,21.4559404 C11.55375,21.4559404 8.75,18.6521904 8.75,15.2059404 C8.75,11.7596904 11.55375,8.95594037 15,8.95594037 Z M15,10.2059404 C12.2425,10.2059404 10,12.4484404 10,15.2059404 C10,17.9634404 12.2425,20.2059404 15,20.2059404 C17.7575,20.2059404 20,17.9634404 20,15.2059404 C20,12.4484404 17.7575,10.2059404 15,10.2059404 Z" id="settings-outline" fill="#000000" fill-rule="nonzero"></path>
    </g>
</svg>