<?xml version="1.0" encoding="UTF-8"?>
<svg viewBox="0 0 27 28" version="1.1" xmlns="http://www.w3.org/2000/svg" xmlns:xlink="http://www.w3.org/1999/xlink">
    <title>Combined Shape</title>
    <g id="SAM" stroke="none" stroke-width="1" fill="none" fill-rule="evenodd">
        <g id="sam.argonprotocol.org-copy" transform="translate(-28, -177)" fill="#000000" fill-rule="nonzero">
            <path d="M41.5,203.845274 C41.7912751,203.845274 42.0273438,204.081549 42.0273438,204.372618 C42.0273438,204.663893 41.7912751,204.899962 41.5,204.899962 C41.2087249,204.899962 40.9726562,204.663893 40.9726562,204.372618 C40.9726562,204.081549 41.2087249,203.845274 41.5,203.845274 Z M41.5,177.90058 C48.9680939,177.90058 55,183.93434 55,191.40058 C55,197.918219 50.3564911,203.501677 43.9587402,204.677077 C43.6719971,204.729605 43.3974075,204.540091 43.3448792,204.25376 C43.2921448,203.967222 43.4816589,203.692427 43.7681961,203.639692 C49.6651764,202.556372 53.9453125,197.409002 53.9453125,191.40058 C53.9453125,184.538107 48.3624725,178.955267 41.5,178.955267 C34.6375275,178.955267 29.0546875,184.538107 29.0546875,191.40058 C29.0546875,197.409002 33.3348236,202.556372 39.2318039,203.639692 C39.5183411,203.692427 39.7078552,203.967222 39.6551208,204.25376 C39.6085663,204.507956 39.3867111,204.685934 39.1370468,204.685934 C39.1055298,204.685934 39.0733948,204.68305 39.0412598,204.677077 C32.6435089,203.501677 28,197.918219 28,191.40058 C28,183.932486 34.0337601,177.90058 41.5,177.90058 Z M48.736763,185.265265 C50.1912842,186.979544 50.9921875,189.158133 50.9921875,191.399962 C50.9921875,196.634054 46.7340927,200.892149 41.5,200.892149 C36.694992,200.892149 32.836113,197.261511 32.1369705,192.986525 C31.6829605,190.204168 32.4585266,187.389265 34.2652969,185.262999 C34.8888397,184.526365 36.0559998,184.605879 36.6546173,185.354254 C37.1259308,185.9401 37.1014176,186.781996 36.5942612,187.400389 C35.3444977,188.924742 34.8894577,190.933592 35.3455277,192.911543 C35.9729843,195.626127 38.418129,197.728087 41.5,197.728087 C44.9893265,197.728087 47.828125,194.889288 47.828125,191.399962 C47.828125,189.940085 47.3230286,188.519346 46.4055329,187.399565 C45.8987884,186.782408 45.8734512,185.94113 46.3447647,185.354048 C46.9435882,184.605879 48.1093063,184.526571 48.736763,185.265265 Z M47.1677093,186.01364 C47.0117721,186.208098 47.0338135,186.502669 47.2210617,186.730498 C48.2928467,188.038969 48.8828125,189.697012 48.8828125,191.399962 C48.8828125,195.471014 45.5708465,198.782774 41.5,198.782774 C37.9126205,198.782774 35.0521927,196.325682 34.3178253,193.148848 C33.7878036,190.849753 34.3200912,188.510695 35.7787323,186.731528 C35.9661865,186.503081 35.9880218,186.208098 35.8320846,186.014258 C35.6433945,185.778395 35.2596283,185.720923 35.0697021,185.94525 C33.4629517,187.836065 32.7736969,190.340124 33.1778564,192.816374 C33.8044891,196.648268 37.2629166,199.837462 41.5,199.837462 C46.1523666,199.837462 49.9375,196.052534 49.9375,191.399962 C49.9375,189.407797 49.2255859,187.471457 47.9327698,185.947928 C47.7397537,185.720717 47.3559875,185.778601 47.1677093,186.01364 Z M41.5,181.907774 C42.3723831,181.907774 43.0820312,182.617628 43.0820312,183.489805 L43.0820312,190.345274 C43.0820312,191.217657 42.3723831,191.927305 41.5,191.927305 C40.6276169,191.927305 39.9179688,191.217657 39.9179688,190.345274 L39.9179688,183.489805 C39.9179688,182.617628 40.6276169,181.907774 41.5,181.907774 Z M41.5,182.962462 C41.209137,182.962462 40.9726562,183.199148 40.9726562,183.489805 L40.9726562,190.345274 C40.9726562,190.636137 41.209137,190.872618 41.5,190.872618 C41.790863,190.872618 42.0273438,190.636137 42.0273438,190.345274 L42.0273438,183.489805 C42.0273438,183.199148 41.790863,182.962462 41.5,182.962462 Z" id="Combined-Shape"></path>
        </g>
    </g>
</svg>