<?xml version="1.0" encoding="UTF-8"?>
<svg viewBox="0 0 37 36" version="1.1" xmlns="http://www.w3.org/2000/svg" xmlns:xlink="http://www.w3.org/1999/xlink">
    <title>Combined Shape</title>
    <g id="SAM" stroke="none" stroke-width="1" fill="none" fill-rule="evenodd">
        <g id="SAM-Player" transform="translate(-96, -1060)" fill="#000000" fill-rule="nonzero">
            <g id="Group-3" transform="translate(96.8904, 1060)">
                <path d="M16.2356723,0.086702929 C20.3800152,-0.321478474 24.5377081,0.719960747 28.0001522,3.03356729 C31.4627462,5.34717834 34.0160419,8.78982246 35.2248898,12.7748957 C36.4337378,16.7599238 36.2234381,21.0409165 34.6298408,24.88826 C33.0360936,28.7357534 30.1577485,31.911548 26.4851547,33.8745946 C22.812411,35.8376412 18.5726683,36.4665902 14.4883402,35.6540416 C10.4039672,34.8416429 6.72765351,32.6381467 4.08579802,29.4190022 C1.44393803,26.1998577 0,22.1644146 0,17.9999717 L3,17.9999717 C3,21.4703658 4.20327782,24.83321 6.40482406,27.5158055 C8.6063703,30.1984009 11.6699651,32.0346977 15.0736242,32.7117966 C18.4772684,33.3887454 22.0103624,32.8646463 25.0709572,31.2287491 C28.1314019,29.5928519 30.5300478,26.9464064 31.8581456,23.7403119 C33.1862433,20.5340674 33.361443,16.9666235 32.3540447,13.6457342 C31.3466464,10.3248448 29.2190501,7.45597974 26.333505,5.52797303 C23.4481099,3.59996633 19.9832659,2.73209781 16.5296718,3.07225223 C13.7859664,3.34249177 11.1841009,4.36189002 8.99996962,6 L11.9999795,6 L11.9999795,8.9999871 L5.99998975,8.9999871 C5.17157116,8.9999871 4.5,8.32840825 4.5,7.49998966 L4.5,1.5 L7.49998719,1.5 L7.49998719,3.3797967 C10.0577378,1.54286984 13.0679027,0.398700296 16.2356723,0.086702929 Z M21.0014035,10.349244 L21.0014035,25.6219713 L16.8550967,25.6219713 L16.8550967,14.1674259 L16.7656081,14.1674259 L13.424699,16.1660054 L13.424699,12.646119 L17.1832217,10.349244 L21.0014035,10.349244 Z M3,5.99999223 L3,10.4999922 L7.49998719,10.4999922 L7.49998719,13.4999794 L1.5,13.4999794 C0.671571353,13.4999794 0,12.8284006 0,11.999982 L0,5.99999223 L3,5.99999223 Z" id="Combined-Shape"></path>
            </g>
        </g>
    </g>
</svg>