<?xml version="1.0" encoding="UTF-8"?>
<svg viewBox="0 0 46 47" version="1.1" xmlns="http://www.w3.org/2000/svg" xmlns:xlink="http://www.w3.org/1999/xlink">
    <title>Group</title>
    <g id="SAM" stroke="none" stroke-width="1" fill="none" fill-rule="evenodd">
        <g id="SAM-Base" transform="translate(-926, -103)" fill="#9FA4BC" fill-rule="nonzero" stroke="#E6EAF3">
            <g id="TIMEFRAME-SELECTION" transform="translate(631.1247, 82)">
                <g id="Group" transform="translate(297.8754, 24.0046)">
                    <path d="M12.3002565,4.74623836 C18.6284455,-1.58207945 28.9253148,-1.58207945 35.2536326,4.74623836 C41.5816927,11.0745562 41.5818215,21.3715543 35.2536326,27.6998722 C29.8849161,33.0685886 21.9002648,33.8815502 15.6652397,30.1413341 C15.6652397,30.1413341 15.2146253,29.8726663 14.8343669,30.2529247 L14.0068964,31.0803612 C13.5837152,31.5035312 13.0950415,31.9921982 12.5744614,32.5127752 L12.1785686,32.9086663 C11.6441343,33.4430991 11.08619,34.0010451 10.5383214,34.5489172 L9.72827347,35.3589717 C9.59592437,35.491322 9.46525456,35.6219932 9.33678881,35.7504604 L7.93458103,37.1526867 C7.83214429,37.255125 7.73401074,37.3532601 7.64070514,37.4465672 L7.37579703,37.7114797 C7.25110969,37.8361692 7.13846601,37.9488149 7.03963712,38.0476455 L6.78636597,38.3009214 C6.74008052,38.3472077 6.70072214,38.3865669 6.66881561,38.418474 L6.57099693,38.5162947 C4.92291025,40.1645102 2.61816605,40.5567523 1.15653608,39.0948646 L0.904877501,38.8434637 C-0.55675246,37.381576 -0.16438155,35.0769607 1.48383399,33.428874 C1.48383399,33.428874 1.53708048,33.3756264 1.63535631,33.2773487 L2.41924818,32.4934428 C2.5077817,32.4049078 2.60141632,32.3112717 2.69962615,32.2130603 L3.33958042,31.5730966 C3.51119101,31.4014836 3.69072927,31.221943 3.87642029,31.0362497 L4.45017677,30.4624867 C4.64639842,30.2662631 4.84699793,30.0656617 5.05020041,29.8624576 L5.45955006,29.4531049 C5.52817813,29.3844764 5.59696395,29.3156902 5.66584178,29.246812 L6.0796869,28.832965 C6.76951589,28.1431335 7.455398,27.4572527 8.07159599,26.8410621 L9.76459976,25.1481082 C10.1274623,24.7855034 9.85879455,24.3347601 9.85879455,24.3347601 C6.11844959,18.0996062 6.93154005,10.1149548 12.3002565,4.74623836 Z M32.2569239,7.74307589 C27.5810739,3.06709704 19.9728151,3.0672259 15.2968363,7.74307589 C10.6208575,12.4190547 10.6207286,20.0273135 15.2967074,24.7032924 C19.9728151,29.3790135 27.5809451,29.3790135 32.2569239,24.7032924 C36.9329028,20.0273135 36.9329028,12.4189259 32.2569239,7.74307589 Z M28.6119335,7.32931464 C29.46381,7.68985776 29.8623661,8.67278233 29.501823,9.52478773 C29.141151,10.3767931 28.1584841,10.7750915 27.306221,10.4146772 C23.6525971,8.86864564 19.4219496,10.5833516 17.8760469,14.2369755 C17.6055751,14.8759796 16.9852554,15.2598459 16.3325924,15.2598459 C16.1149522,15.2598459 15.893704,15.2170652 15.6804449,15.1269939 C14.8285684,14.7664507 14.4300123,13.7835262 14.7905554,12.9315208 C17.0566424,7.57633436 23.2568759,5.06322767 28.6119335,7.32931464 Z" id="Combined-Shape" stroke-width="6"></path>
                    <path d="M12.3002565,4.74623836 C18.6284455,-1.58207945 28.9253148,-1.58207945 35.2536326,4.74623836 C41.5816927,11.0745562 41.5818215,21.3715543 35.2536326,27.6998722 C29.8849161,33.0685886 21.9002648,33.8815502 15.6652397,30.1413341 C15.6652397,30.1413341 15.2146253,29.8726663 14.8343669,30.2529247 L14.0068964,31.0803612 C13.5837152,31.5035312 13.0950415,31.9921982 12.5744614,32.5127752 L12.1785686,32.9086663 C11.6441343,33.4430991 11.08619,34.0010451 10.5383214,34.5489172 L9.72827347,35.3589717 C9.59592437,35.491322 9.46525456,35.6219932 9.33678881,35.7504604 L7.93458103,37.1526867 C7.83214429,37.255125 7.73401074,37.3532601 7.64070514,37.4465672 L7.37579703,37.7114797 C7.25110969,37.8361692 7.13846601,37.9488149 7.03963712,38.0476455 L6.78636597,38.3009214 C6.74008052,38.3472077 6.70072214,38.3865669 6.66881561,38.418474 L6.57099693,38.5162947 C4.92291025,40.1645102 2.61816605,40.5567523 1.15653608,39.0948646 L0.904877501,38.8434637 C-0.55675246,37.381576 -0.16438155,35.0769607 1.48383399,33.428874 C1.48383399,33.428874 1.53708048,33.3756264 1.63535631,33.2773487 L2.41924818,32.4934428 C2.5077817,32.4049078 2.60141632,32.3112717 2.69962615,32.2130603 L3.33958042,31.5730966 C3.51119101,31.4014836 3.69072927,31.221943 3.87642029,31.0362497 L4.45017677,30.4624867 C4.64639842,30.2662631 4.84699793,30.0656617 5.05020041,29.8624576 L5.45955006,29.4531049 C5.52817813,29.3844764 5.59696395,29.3156902 5.66584178,29.246812 L6.0796869,28.832965 C6.76951589,28.1431335 7.455398,27.4572527 8.07159599,26.8410621 L9.76459976,25.1481082 C10.1274623,24.7855034 9.85879455,24.3347601 9.85879455,24.3347601 C6.11844959,18.0996062 6.93154005,10.1149548 12.3002565,4.74623836 Z M32.2569239,7.74307589 C27.5810739,3.06709704 19.9728151,3.0672259 15.2968363,7.74307589 C10.6208575,12.4190547 10.6207286,20.0273135 15.2967074,24.7032924 C19.9728151,29.3790135 27.5809451,29.3790135 32.2569239,24.7032924 C36.9329028,20.0273135 36.9329028,12.4189259 32.2569239,7.74307589 Z M28.6119335,7.32931464 C29.46381,7.68985776 29.8623661,8.67278233 29.501823,9.52478773 C29.141151,10.3767931 28.1584841,10.7750915 27.306221,10.4146772 C23.6525971,8.86864564 19.4219496,10.5833516 17.8760469,14.2369755 C17.6055751,14.8759796 16.9852554,15.2598459 16.3325924,15.2598459 C16.1149522,15.2598459 15.893704,15.2170652 15.6804449,15.1269939 C14.8285684,14.7664507 14.4300123,13.7835262 14.7905554,12.9315208 C17.0566424,7.57633436 23.2568759,5.06322767 28.6119335,7.32931464 Z" id="Combined-Shape" stroke-width="2"></path>
                </g>
            </g>
        </g>
    </g>
</svg>